<svg width="274" height="73" viewBox="0 0 274 73" fill="none" xmlns="http://www.w3.org/2000/svg">
<path d="M25.8791 70.483C40.039 74.8679 52.7371 71.3965 63.2428 60.7081C63.6082 60.3427 63.9736 59.7946 64.2477 59.3378C64.5218 58.881 64.5218 58.4243 64.1563 57.9675C63.6996 57.5107 63.1515 57.054 62.6033 56.5972L56.0259 51.39C53.5593 49.3803 53.468 49.2889 51.0014 51.5727C42.6882 59.4292 29.5333 59.0637 21.5855 50.8419C13.7291 42.7114 13.6378 29.8306 21.4942 21.6087C29.4419 13.3869 42.5055 12.9301 50.9101 20.6952C51.2755 20.9693 51.4582 21.2433 51.8236 21.5174C53.2853 22.8877 53.5593 22.8877 55.2037 21.6087C57.6702 19.6903 60.1368 17.6805 62.512 15.7621C64.9785 13.7523 64.9785 13.4783 62.786 11.2858C54.4729 2.78989 44.3326 -0.772906 32.6393 0.414692C13.7291 2.42447 0.482824 18.8681 0.848238 36.0426C0.848238 37.1389 0.756884 38.2351 0.848238 39.24C0.848238 40.0622 0.939592 40.793 1.1223 41.6152C3.6802 56.0491 11.902 66.098 25.8791 70.483Z" fill="#FF0F00"/>
<path d="M130.33 70.5743C134.35 70.5743 134.35 70.5743 134.441 66.6461C134.441 56.4145 134.441 46.2742 134.441 36.0426L134.441 6.07862C134.441 5.25644 134.441 4.3429 134.35 3.42937C134.258 1.785 133.984 1.41958 132.248 1.32823L122.382 1.32823C122.108 1.32823 121.834 1.32823 121.56 1.41958C120.921 1.60229 120.464 1.96771 120.372 2.60718C120.281 3.42937 120.281 4.3429 120.281 5.16508L120.281 25.6283C120.281 28.2776 120.007 28.5516 117.266 28.5516L97.9908 28.5516C94.9761 28.5516 94.7934 28.3689 94.7934 25.1715C94.7934 19.1422 94.7934 13.0215 94.7934 6.9008L94.7934 3.42936C94.702 1.87635 94.3366 1.41958 92.875 1.32823L82.7347 1.32823C81.3644 1.41958 80.999 1.785 80.8163 3.06395L80.8163 5.43915C80.8163 25.811 80.8163 46.1829 80.8163 66.5547L80.8163 68.2905C80.9076 70.2089 81.273 70.5743 83.0088 70.5743C85.7494 70.6657 88.49 70.6657 91.2306 70.5743C94.702 70.5743 94.7934 70.5743 94.7934 67.0115L94.7934 46.9137C94.7934 46.0915 94.7934 45.178 94.8847 44.3558C94.8847 43.2596 95.3415 42.8028 96.5291 42.7114C97.0772 42.6201 97.7167 42.6201 98.2648 42.6201L116.901 42.6201C120.19 42.7114 120.281 42.8028 120.281 46.1829C120.281 52.8517 120.281 59.5205 120.281 66.1893L120.281 68.5645C120.372 70.1175 120.829 70.5743 122.474 70.5743C125.123 70.6657 127.681 70.6657 130.33 70.5743Z" fill="#FF0F00"/>
<path d="M200.306 70.5743C201.037 70.5743 201.676 70.6657 202.407 70.5743C204.052 70.483 204.417 70.1175 204.508 68.4732L204.508 60.0686C204.508 56.5972 204.417 56.5058 200.854 56.5058C193.363 56.5058 185.872 56.5058 178.473 56.5058L176.097 56.5058C174.636 56.4145 174.179 55.9577 174.088 54.5874L174.088 44.6299C174.088 43.1682 174.636 42.8028 176.097 42.7114C176.92 42.6201 177.833 42.6201 178.655 42.6201C183.863 42.6201 188.978 42.7114 194.094 42.6201C196.195 42.6201 196.561 42.2547 196.561 40.3362C196.652 37.2302 196.652 34.1242 196.561 31.0182C196.561 30.5614 196.561 30.196 196.469 29.8306C196.378 29.1911 196.013 28.8257 195.373 28.643C195.008 28.5516 194.551 28.5516 194.185 28.5516C193.546 28.5516 192.815 28.5516 192.176 28.5516L178.199 28.5516C174.088 28.5516 174.088 28.5516 174.088 24.6234L174.088 19.0508C174.088 15.3053 174.088 15.3053 177.742 15.3053L200.215 15.3053C200.946 15.3053 201.768 15.3053 202.499 15.214C203.96 15.1226 204.417 14.7572 204.508 13.2956L204.508 5.16509C204.508 1.32823 204.508 1.32824 200.58 1.32824L164.13 1.32823C160.111 1.32823 160.111 1.32823 160.111 5.25644C160.019 15.4881 160.111 25.6283 160.111 35.8599C160.111 46.0915 160.019 56.2318 160.111 66.4634C160.111 67.3769 160.111 68.3818 160.202 69.2954C160.293 69.9348 160.659 70.3916 161.298 70.483C162.303 70.5743 163.217 70.5743 164.221 70.5743C176.28 70.6657 188.339 70.5743 200.306 70.5743Z" fill="#FF0F00"/>
<path d="M234.69 70.5743C237.248 70.5743 239.715 70.6657 242.273 70.5743C243.643 70.5743 244.008 70.1175 244.1 68.8386C244.191 68.0164 244.191 67.1029 244.191 66.1893L244.191 47.2791C244.191 43.9904 244.282 43.8077 247.571 43.8077L261.822 43.8077C262.736 43.8077 263.558 43.8077 264.471 43.7163C265.111 43.625 265.476 43.1682 265.568 42.5287C265.659 41.9806 265.75 41.3411 265.75 40.793L265.75 32.6625C265.659 29.9219 265.476 29.7392 262.644 29.7392L248.119 29.7392C247.206 29.7392 246.383 29.7392 245.47 29.6479C244.83 29.5565 244.374 29.0997 244.282 28.4603C244.191 27.8208 244.191 27.1813 244.191 26.4505L244.191 19.1422C244.191 15.1226 244.191 15.1226 248.21 15.1226L269.13 15.1226C270.044 15.1226 270.866 15.1226 271.78 15.0313C272.693 15.0313 273.15 14.5745 273.241 13.5696C273.241 13.0215 273.333 12.382 273.333 11.8339L273.333 4.79968C273.241 1.23689 273.241 1.14553 269.496 1.14553L233.959 1.14553C233.228 1.14553 232.406 1.14553 231.675 1.23688C230.762 1.32824 230.305 1.785 230.214 2.78989C230.122 3.61208 230.214 4.52562 230.214 5.3478C230.122 15.5794 230.214 25.7197 230.214 35.9513C230.214 46.0002 230.122 56.1404 230.214 66.1893L230.214 69.1127C230.305 70.0262 230.762 70.483 231.767 70.5743C232.772 70.6657 233.685 70.5743 234.69 70.5743Z" fill="#FF0F00"/>
</svg>
