<svg width="623" height="298" viewBox="0 0 623 298" fill="none" xmlns="http://www.w3.org/2000/svg">
<path fill-rule="evenodd" clip-rule="evenodd" d="M278.701 10.389C246.874 2.90892 218.918 0 188.811 0C63.6538 0 0 49.867 0 148.354C0 248.088 59.3529 297.124 181.499 297.124C213.326 297.124 253.325 289.71 278.701 280.152V158.914L112.219 179.192C109.438 179.583 106.638 178.837 104.347 177.165C102.056 175.492 100.64 172.984 100.237 170.12C99.8449 167.326 100.584 164.515 102.247 162.216C103.919 159.986 106.404 158.497 109.255 158.097L278.701 133.176V10.389ZM288.987 157.661L309.579 155.153C318.898 153.843 324.646 160.413 328.262 164.546C329.097 165.501 329.819 166.326 330.444 166.893C336.444 172.312 341.517 171.569 346.528 170.834C346.875 170.783 347.222 170.732 347.569 170.683L513.63 144.419C514.031 144.357 514.497 144.293 515.016 144.223C520.958 143.414 533.936 141.648 538.651 129.718C541.911 121.638 543.527 117.493 547.048 108.236C549.295 101.011 543.238 94.2402 536.99 95.1898L289.582 131.576C297.161 49.8792 359.463 0 455.678 0C558.471 0 622.124 56.9315 622.124 148.77C622.124 243.102 561.481 297.54 455.678 297.54C353.245 297.54 292.737 246.514 288.987 157.661Z" fill="#FF0F00"/>
</svg>
