<?xml version="1.0" encoding="utf-8"?>
<!-- Generator: Adobe Illustrator 26.3.1, SVG Export Plug-In . SVG Version: 6.00 Build 0)  -->
<svg version="1.1" id="Layer_1" xmlns="http://www.w3.org/2000/svg" xmlns:xlink="http://www.w3.org/1999/xlink" x="0px" y="0px"
	 viewBox="0 0 297.5 622.1" style="enable-background:new 0 0 297.5 622.1;" xml:space="preserve">
<style type="text/css">
	.st0{fill-rule:evenodd;clip-rule:evenodd;fill:#FF0F00;}
</style>
<path class="st0" d="M10.4,343.4C3,375.3,0,403.2,0,433.3c0,125.2,49.9,188.8,148.4,188.8c99.7,0,148.8-59.4,148.8-181.5
	c0-31.8-7.4-71.8-17-97.2H160.8l3.7,171.7c0,2.9-1.1,5.4-4.1,5.4h-11.1h-11.1c-2.9,0-4.1-2.5-4.1-5.4l1-171.7H10.4z M160.5,333
	l-0.8-39.3c3.8-4,11.3-10.7,18.6-17.3c7.6-6.9,15.1-13.6,18.1-17c0.2-27.5-19.5-160.7-54.4-191h-5.3l-1.5,264.4
	C51.4,326.8,0,264.1,0,166.4C0,63.7,57,0,148.8,0c94.3,0,148.8,60.6,148.8,166.4C297.6,267.8,247.6,328.1,160.5,333z"/>
</svg>
