<?xml version="1.0" encoding="utf-8"?>
<!-- Generator: Adobe Illustrator 26.3.1, SVG Export Plug-In . SVG Version: 6.00 Build 0)  -->
<svg version="1.1" id="Layer_1" xmlns="http://www.w3.org/2000/svg" xmlns:xlink="http://www.w3.org/1999/xlink" x="0px" y="0px"
	 viewBox="0 0 297.5 622.1" style="enable-background:new 0 0 297.5 622.1;" xml:space="preserve">
<style type="text/css">
	.st0{fill-rule:evenodd;clip-rule:evenodd;fill:#FF0F00;}
</style>
<path class="st0" d="M10.6,343.4c-7.5,31.8-10.4,59.8-10.4,89.9c0,125.2,49.9,188.8,148.4,188.8c99.7,0,148.8-59.4,148.8-181.5
	c0-31.8-7.4-71.8-17-97.2H184l5,190.8c0.1,3.4-2.6,6.2-6,6.3c-3.4,0.1-6.2-2.6-6.3-6l-5.6-191.2h-39l-11.7,173.9
	c-0.2,3.4-3.2,6-6.5,5.7c-3.4-0.2-6-3.1-5.7-6.5l11.2-173.1H10.6z M132.9,332.6l18.3-271.7c0.3-3.8-2.6-7-6.4-7.3
	c-3.8-0.2-7,2.6-7.2,6.4l-17.5,271C45.4,318.8,0.2,258,0.2,166.4C0.2,63.7,57.2,0,149,0c94.3,0,148.8,60.6,148.8,166.4
	c0,92.1-41.2,150.3-114.1,163.8L177,77c-0.1-3.8-3.2-6.7-7-6.6c-3.8,0.1-6.7,3.2-6.6,7l7.4,254.8c-7,0.8-14.3,1.2-21.8,1.2
	C143.5,333.3,138.1,333.1,132.9,332.6z"/>
</svg>
