<?xml version="1.0" encoding="utf-8"?>
<!-- Generator: Adobe Illustrator 26.3.1, SVG Export Plug-In . SVG Version: 6.00 Build 0)  -->
<svg version="1.1" id="Layer_1" xmlns="http://www.w3.org/2000/svg" xmlns:xlink="http://www.w3.org/1999/xlink" x="0px" y="0px"
	 viewBox="0 0 297.5 622.1" style="enable-background:new 0 0 297.5 622.1;" xml:space="preserve">
<style type="text/css">
	.st0{fill-rule:evenodd;clip-rule:evenodd;fill:#FF0F00;}
</style>
<path class="st0" d="M10.6,343.4c-7.5,31.8-10.4,59.8-10.4,89.9c0,125.2,49.9,188.8,148.4,188.8c99.7,0,148.8-59.4,148.8-181.5
	c0-31.8-7.4-71.8-17-97.2H159c-0.4,27.9-0.8,59.8-1.2,88.2c-0.4,31.4-0.8,58.7-1,71.9c0,5.2-1.1,7.9-5.4,7.9h-4.4
	c-4.3,0-5.4-2.7-5.4-7.9c-0.2-19.5-0.8-63.4-1.4-108c-0.2-17.8-0.5-35.7-0.7-52.2H10.6z M159.1,333.1c0.4-34.1,0.7-60.4,0.6-63.8
	c-0.2-8.9,8.4-26.5,13.3-36.6c0.5-1.1,1-2.1,1.5-3c5.3-11,9.7-20.2,9.7-25.7c0-5.3-5.5-63-8.3-92c-0.5-5.4-0.9-9.8-1.2-12.7
	c-0.3-2.9-3.1-3.8-4.5-3.7c-1.6,0.1-4.3,1.3-4.2,4.1v95.8c0,5.1-2.6,6.9-5.3,6.9c-2.4,0-5.3-1.3-5.3-6.7l-1.6-96
	c-0.1-1.7-2.3-4.1-4.5-4.1s-4.5,2.4-4.5,4.1l-1.6,96c0.1,5.4-2.9,6.7-5.3,6.7c-2.6,0-5.3-1.8-5.3-6.9V99.5c0.1-2.9-2.6-4.1-4.2-4.1
	c-1.4,0-4.2,0.9-4.5,3.7c-1.8,18.5-9.6,98.3-9.6,104.7c0,5.6,4.4,14.8,9.7,25.7c0.3,0.7,0.7,1.4,1.1,2.2
	c4.9,9.9,13.9,28.3,13.7,37.5c-0.1,3.6,0.2,29.8,0.7,63.8C53.2,328.8,0.2,265.6,0.2,166.4C0.2,63.7,57.2,0,149,0
	c94.3,0,148.8,60.6,148.8,166.4C297.8,268.4,247.2,328.8,159.1,333.1z"/>
</svg>
