<svg width="623" height="298" viewBox="0 0 623 298" fill="none" xmlns="http://www.w3.org/2000/svg">
<path fill-rule="evenodd" clip-rule="evenodd" d="M278.701 10.389C246.874 2.90892 218.918 0 188.811 0C63.6538 0 0 49.867 0 148.354C0 248.088 59.3529 297.124 181.499 297.124C213.326 297.124 253.325 289.71 278.701 280.152V158.726C250.77 158.368 218.922 157.933 190.476 157.544C159.067 157.116 131.807 156.743 118.546 156.594C113.317 156.594 110.6 155.509 110.6 151.237V146.83C110.6 142.491 113.317 141.474 118.546 141.474C138.084 141.3 181.955 140.693 226.546 140.076C244.315 139.83 262.198 139.582 278.701 139.36V10.389ZM289.041 158.857C323.131 159.285 349.409 159.564 352.86 159.441C361.799 159.258 379.402 167.834 389.502 172.755C390.606 173.293 391.62 173.787 392.524 174.221C403.527 179.51 412.695 183.916 418.265 183.916C423.591 183.916 481.219 178.372 510.273 175.577C515.673 175.058 520.087 174.633 522.993 174.357C525.913 174.086 526.796 171.306 526.728 169.882C526.593 168.323 525.438 165.543 522.585 165.679H426.822C421.728 165.679 419.963 163.034 419.963 160.39C419.963 158.017 421.253 155.102 426.686 155.102L522.653 153.475C524.351 153.407 526.728 151.17 526.728 149C526.728 146.83 524.351 144.525 522.653 144.525L426.686 142.898C421.253 142.966 419.963 139.983 419.963 137.61C419.963 134.966 421.728 132.321 426.822 132.321H522.585C525.506 132.457 526.66 129.745 526.728 128.118C526.728 126.694 525.845 123.914 522.993 123.643C504.452 121.813 424.649 114.084 418.265 114.084C412.695 114.084 403.459 118.49 392.524 123.779C391.86 124.103 391.137 124.458 390.362 124.839C380.432 129.719 362.059 138.748 352.86 138.559C349.306 138.46 323.091 138.769 289.038 139.221C293.352 53.0018 356.497 0 455.678 0C558.471 0 622.124 56.9315 622.124 148.77C622.124 243.102 561.481 297.54 455.678 297.54C353.705 297.54 293.282 246.972 289.041 158.857Z" fill="#FF0F00"/>
</svg>
