<svg width="623" height="298" viewBox="0 0 623 298" fill="none" xmlns="http://www.w3.org/2000/svg">
<path fill-rule="evenodd" clip-rule="evenodd" d="M278.701 10.389C246.874 2.90892 218.918 0 188.811 0C63.6538 0 0 49.867 0 148.354C0 248.088 59.3529 297.124 181.499 297.124C213.326 297.124 253.325 289.71 278.701 280.152V162.883C205.357 165.173 116.253 168.162 116.253 168.162C113.256 168.162 110.6 166.728 110.6 162.903V148.696V134.558C110.6 130.87 113.256 129.299 116.253 129.299C116.253 129.299 205.363 132.493 278.701 134.943V10.389ZM289.254 162.555C330.228 161.287 364.368 160.307 371.993 160.307C376.989 160.414 382.206 166.251 387.74 172.442C392.844 178.152 398.217 184.164 403.936 186.261C408.499 188.106 413.334 189.13 418.238 189.403C427.228 190.223 510.523 179.5 524.621 176.358C526.187 176.016 526.732 174.65 526.732 173.284C526.664 171.782 525.234 170.621 524.076 170.621C516.92 170.723 509.969 170.826 503.018 170.928C496.075 171.031 489.132 171.133 481.986 171.235C480.487 171.235 479.057 170.348 478.853 168.299C478.717 165.84 480.76 164.679 481.986 164.542C497.105 162.561 510.114 161.195 524.144 159.898C526.119 159.761 526.732 158.327 526.732 157.302C526.664 156.209 525.915 154.639 523.735 154.57C515.602 154.168 507.634 153.885 499.47 153.594C493.756 153.391 487.947 153.184 481.918 152.931C478.785 152.726 478.512 149.926 478.512 148.97C478.512 148.013 478.785 145.145 481.918 145.008C488.966 144.679 495.714 144.446 502.36 144.215C509.521 143.967 516.564 143.723 523.735 143.369C525.915 143.301 526.664 141.73 526.732 140.637C526.732 139.681 526.119 138.247 524.144 138.042C510.046 136.744 497.037 135.378 481.986 133.397C480.76 133.261 478.717 132.099 478.853 129.641C479.057 127.66 480.487 126.704 481.986 126.704C489.139 126.806 496.088 126.909 503.037 127.011C509.982 127.114 516.927 127.216 524.076 127.318C525.234 127.318 526.596 126.157 526.732 124.655C526.732 123.22 526.187 121.923 524.621 121.581C510.523 118.439 427.228 107.716 418.238 108.604C413.334 108.809 408.499 109.902 403.936 111.746C398.264 113.838 392.904 119.826 387.804 125.524C382.248 131.731 377 137.593 371.993 137.7C364.436 137.7 330.284 136.651 289.277 135.294C295.289 51.3952 358.012 0 455.678 0C558.471 0 622.124 56.9315 622.124 148.77C622.124 243.102 561.481 297.54 455.678 297.54C355.14 297.54 294.991 248.385 289.254 162.555Z" fill="#FF0F00"/>
</svg>
