<?xml version="1.0" encoding="utf-8"?>
<!-- Generator: Adobe Illustrator 26.3.1, SVG Export Plug-In . SVG Version: 6.00 Build 0)  -->
<svg version="1.1" id="Layer_1" xmlns="http://www.w3.org/2000/svg" xmlns:xlink="http://www.w3.org/1999/xlink" x="0px" y="0px"
	 viewBox="0 0 297.5 622.1" style="enable-background:new 0 0 297.5 622.1;" xml:space="preserve">
<style type="text/css">
	.st0{fill-rule:evenodd;clip-rule:evenodd;fill:#FF0F00;}
</style>
<path class="st0" d="M10,343.4c-7.5,31.8-10.4,59.8-10.4,89.9c0,125.2,49.9,188.8,148.4,188.8c99.7,0,148.8-59.4,148.8-181.5
	c0-31.8-7.4-71.8-17-97.2H162.4c2.3,73.3,5.3,162.4,5.3,162.4c0,3-1.4,5.7-5.3,5.7h-14.2h-14.1c-3.7,0-5.3-2.7-5.3-5.7
	c0,0,3.2-89.1,5.6-162.4H10z M162.1,332.9c-1.3-41-2.2-75.1-2.2-82.7c0.1-5,5.9-10.2,12.1-15.7c5.7-5.1,11.7-10.5,13.8-16.2
	c1.8-4.6,2.9-9.4,3.1-14.3c0.8-9-9.9-92.3-13-106.4c-0.3-1.6-1.7-2.1-3.1-2.1c-1.5,0.1-2.7,1.5-2.7,2.7c0.1,7.2,0.2,14.1,0.3,21.1
	c0.1,6.9,0.2,13.9,0.3,21c0,1.5-0.9,2.9-2.9,3.1c-2.5,0.1-3.6-1.9-3.8-3.1c-2-15.1-3.3-28.1-4.6-42.2c-0.1-2-1.6-2.6-2.6-2.6
	c-1.1,0.1-2.7,0.8-2.7,3c-0.4,8.1-0.7,16.1-1,24.3c-0.2,5.7-0.4,11.5-0.7,17.6c-0.2,3.1-3,3.4-4,3.4c-1,0-3.8-0.3-4-3.4
	c-0.3-7-0.6-13.8-0.8-20.4c-0.2-7.2-0.5-14.2-0.8-21.4c-0.1-2.2-1.6-2.9-2.7-3c-1,0-2.4,0.6-2.6,2.6c-1.3,14.1-2.7,27.1-4.6,42.2
	c-0.1,1.2-1.3,3.3-3.8,3.1c-2-0.2-2.9-1.6-2.9-3.1c0.1-7.2,0.2-14.1,0.3-21.1c0.1-6.9,0.2-13.9,0.3-21c0-1.2-1.2-2.5-2.7-2.7
	c-1.4,0-2.7,0.5-3.1,2.1c-3.1,14.1-13.9,97.4-13,106.4c0.2,4.9,1.3,9.7,3.1,14.3c2.1,5.7,8.1,11,13.8,16.1
	c6.2,5.6,12.1,10.8,12.2,15.8c0,7.6-1,41.7-2.4,82.7C51,326.8-0.4,264.1-0.4,166.4C-0.4,63.7,56.5,0,148.3,0
	c94.3,0,148.8,60.6,148.8,166.4C297.1,267,247.9,327.1,162.1,332.9z"/>
</svg>
