<svg width="623" height="298" viewBox="0 0 623 298" fill="none" xmlns="http://www.w3.org/2000/svg">
<path fill-rule="evenodd" clip-rule="evenodd" d="M278.701 10.389C246.874 2.90892 218.918 0 188.811 0C63.6538 0 0 49.867 0 148.354C0 248.088 59.3529 297.124 181.499 297.124C213.326 297.124 253.325 289.71 278.701 280.152V126.406C273.445 125.208 269.704 125.545 269.704 125.545L121.986 125.545C121.272 125.545 120.477 125.567 119.627 125.591C112.123 125.8 100.231 126.132 100.231 112.444C100.231 105.558 114.972 106.255 114.972 106.255C114.972 106.255 246.707 105.16 278.701 105.098V10.389ZM289.653 130.828C291.652 132.042 293.665 133.528 295.62 135.348C297.217 136.861 298.681 138.236 300.113 139.581C303.373 142.643 306.469 145.551 310.598 149.579C319.831 158.401 326.565 164.863 331.808 169.895C343.981 181.577 348.117 185.547 356.842 193.43C368.016 203.55 381.211 211.561 396.309 216.304C403.679 218.518 411.644 219.994 419.371 220.205C443.503 220.732 467.754 220.626 491.887 220.205C497.712 220.099 504.25 218.413 509.005 215.566C527.312 204.815 539.557 189.108 551.088 173.086C553.941 169.185 551.563 165.812 546.333 165.285C544.995 165.127 543.658 165.147 542.32 165.167C541.875 165.173 541.429 165.18 540.983 165.18H471.44H405.463C384.302 165.18 366.352 159.593 350.898 145.889C348.153 143.412 345.493 141.175 342.758 138.876C338.977 135.698 335.053 132.401 330.57 128.18C324.507 122.488 320.108 118.166 319.395 117.428C319.395 117.428 311.648 109.056 293.961 106.108C311.093 39.6337 369.912 0 455.678 0C558.471 0 622.124 56.9315 622.124 148.77C622.124 243.102 561.481 297.54 455.678 297.54C349.875 297.54 288.802 243.102 288.802 148.77C288.802 142.631 289.088 136.648 289.653 130.828Z" fill="#FF0F00"/>
</svg>
