<svg width="623" height="298" viewBox="0 0 623 298" fill="none" xmlns="http://www.w3.org/2000/svg">
<path fill-rule="evenodd" clip-rule="evenodd" d="M278.701 10.389C246.874 2.90892 218.918 0 188.811 0C63.6538 0 0 49.867 0 148.354C0 248.088 59.3529 297.124 181.499 297.124C213.326 297.124 253.325 289.71 278.701 280.152V168.712C206.846 181.115 120.889 196.153 120.889 196.153C117.921 196.57 115.091 195.519 114.559 191.732L112.583 177.663L110.615 163.663C110.102 160.011 112.514 158.085 115.481 157.668C115.481 157.668 205.445 148.294 278.701 140.476V10.389ZM289.587 166.834C330.8 159.732 365.383 153.851 373.048 152.774C378.01 152.184 383.988 157.238 390.33 162.599C396.178 167.543 402.336 172.748 408.29 174.029C413.066 175.22 417.997 175.561 422.891 175.149C431.907 174.709 512.899 152.495 526.423 147.421C527.927 146.865 528.276 145.437 528.086 144.084C527.809 142.605 526.232 141.655 525.085 141.816C518.018 142.913 511.153 143.981 504.288 145.05C497.423 146.118 490.558 147.187 483.49 148.284C482.006 148.492 480.467 147.812 479.979 145.812C479.502 143.396 481.364 141.961 482.559 141.656C497.256 137.589 509.948 134.426 523.66 131.188C525.597 130.777 526.005 129.272 525.862 128.257C525.643 127.185 524.682 125.733 522.515 125.969C514.405 126.703 506.475 127.532 498.35 128.38C492.663 128.974 486.881 129.578 480.876 130.167C477.745 130.4 477.086 127.665 476.953 126.718C476.819 125.771 476.69 122.893 479.774 122.321C486.707 121.015 493.357 119.844 499.906 118.691C506.964 117.448 513.904 116.226 520.956 114.877C523.105 114.506 523.628 112.846 523.543 111.754C523.41 110.807 522.604 109.472 520.619 109.544C506.478 110.222 493.406 110.68 478.225 110.814C476.992 110.849 474.808 109.984 474.6 107.53C474.527 105.54 475.81 104.394 477.294 104.186C484.39 103.292 491.283 102.426 498.177 101.56C505.071 100.695 511.964 99.8291 519.06 98.9351C520.206 98.7739 521.394 97.4345 521.32 95.9276C521.12 94.5072 520.4 93.298 518.801 93.1779C504.403 92.0292 420.427 93.0056 411.648 95.1363C406.821 96.0218 402.184 97.7772 397.922 100.239C392.597 103.1 388.122 109.776 383.864 116.128C379.226 123.048 374.845 129.584 369.902 130.387C362.503 131.427 329.214 135.071 289.031 139.372C293.279 53.0634 356.439 0 455.678 0C558.471 0 622.124 56.9315 622.124 148.77C622.124 243.102 561.481 297.54 455.678 297.54C356.823 297.54 297.016 250.017 289.587 166.834Z" fill="#FF0F00"/>
</svg>
