<svg width="623" height="298" viewBox="0 0 623 298" fill="none" xmlns="http://www.w3.org/2000/svg">
<path fill-rule="evenodd" clip-rule="evenodd" d="M278.701 10.389C246.874 2.90892 218.918 0 188.811 0C63.6538 0 0 49.867 0 148.354C0 248.088 59.3529 297.124 181.499 297.124C213.326 297.124 253.325 289.71 278.701 280.152V152.311L110.142 149.201C107.334 149.201 104.666 148.072 102.629 146.097C100.593 144.122 99.5398 141.441 99.5398 138.549C99.5398 135.727 100.663 133.047 102.629 131.001C104.595 129.026 107.264 127.898 110.142 127.898L278.701 126.825V10.389ZM288.834 152.498L308.926 152.869C318.337 152.869 323.115 160.176 326.12 164.772C326.815 165.834 327.415 166.751 327.955 167.4C333.143 173.601 338.27 173.571 343.335 173.541C343.685 173.539 344.036 173.537 344.386 173.537L512.485 170.645C512.891 170.639 513.361 170.641 513.885 170.643C519.881 170.67 532.98 170.728 539.308 159.57C543.661 152.022 545.838 148.142 550.613 139.466C553.843 132.624 548.787 125.076 542.468 125.146L290.098 126.752C299.646 47.9202 361.371 0 455.678 0C558.471 0 622.124 56.9315 622.124 148.77C622.124 243.102 561.481 297.54 455.678 297.54C351.277 297.54 290.428 244.534 288.834 152.498Z" fill="#FF0F00"/>
</svg>
