<?xml version="1.0" encoding="utf-8"?>
<!-- Generator: Adobe Illustrator 26.3.1, SVG Export Plug-In . SVG Version: 6.00 Build 0)  -->
<svg version="1.1" id="Layer_1" xmlns="http://www.w3.org/2000/svg" xmlns:xlink="http://www.w3.org/1999/xlink" x="0px" y="0px"
	 viewBox="0 0 297.5 622.1" style="enable-background:new 0 0 297.5 622.1;" xml:space="preserve">
<style type="text/css">
	.st0{fill-rule:evenodd;clip-rule:evenodd;fill:#FF0F00;}
</style>
<path class="st0" d="M10.3,343.3c-7.5,31.8-10.4,59.8-10.4,89.9C-0.1,558.3,49.8,622,148.3,622c99.7,0,148.8-59.4,148.8-181.5
	c0-31.8-7.4-71.8-17-97.2H156.4c-7.5,59.3-17.3,142.1-20.1,169.7c-0.5,5.4-1.7,8.1-5.7,7.8l-4-0.4c-4-0.3-4.7-3.2-4.2-8.6
	c1-13.2,3.9-50.6,7.5-98.9c1.6-21.4,3.4-45,5.2-69.6H10.3z M157.7,333c3.7-29.3,6.6-50.9,7.4-53.8c3.1-14,17.8-38.9,18.8-40.2
	c0.9-1.1,1.6-2.5,1.9-3.9c0.2-1.7,0.2-3.4-0.3-5.1c-0.3-1.5,0.5-2.6,1.4-3.7c1-1.3,2.1-2.7,1.9-5.1c-0.2-1.6-0.7-2.4-1.3-3.2
	c-0.6-0.8-1.1-1.6-1.3-3c-0.2-1.5,0.4-2.5,1-3.5c0.6-1,1.1-2,1.1-3.5c-0.1-1.7-0.9-2.7-1.7-3.6c-0.8-0.9-1.7-1.9-1.8-3.7
	c-0.1-1.7,0.5-2.8,1.1-3.9c0.6-1.1,1.2-2.2,1.1-3.8c-0.2-1.6-1-2.5-1.8-3.4c-0.8-0.9-1.6-1.7-1.8-3.4c-0.2-1.6,0.4-2.7,1-3.8
	c0.6-1.1,1.2-2.2,1-3.9c-0.2-1.7-1-2.6-1.8-3.5c-0.8-0.9-1.6-1.8-1.7-3.4c-0.1-1.6,0.5-2.7,1-3.7c0.6-1,1.2-2.1,1-3.6
	c-0.1-1.7-1-2.6-1.8-3.5c-0.8-0.9-1.6-1.7-1.8-3.3c-0.1-1.6,0.4-2.6,1-3.7c0.6-1.1,1.2-2.2,1-3.8c-0.2-1.6-1-2.5-1.7-3.3
	c-0.8-0.8-1.6-1.7-1.7-3.3c-0.2-1.6,0.4-2.7,1-3.7c0.6-1,1.2-2.1,1-3.8c-0.2-1.7-1-2.5-1.8-3.4c-0.8-0.9-1.6-1.7-1.8-3.4
	c-0.2-1.7,0.4-2.8,1-3.9c0.6-1.1,1.2-2.3,1-3.9c-0.2-1.6-1-2.5-1.8-3.3c-0.8-0.8-1.6-1.7-1.8-3.3c-0.2-1.6,0.4-2.7,1-3.8
	c0.6-1.1,1.2-2.2,1.1-3.9c-0.2-1.7-0.9-2.6-1.7-3.6c-0.7-0.9-1.5-1.8-1.8-3.4c-0.5-2.5-0.6-5.1-0.2-7.6c0.3-2.8-0.2-4.1-1.2-6.6
	c-3-7-6.7-13.6-11.1-19.6c-1.2-1.7-2.6-2.6-3.8-2c-0.4,0.2-0.7,0.4-0.9,0.8c-0.3,0.4-0.5,0.8-0.5,1.3c-4.1,47.7-13,164-20.7,266.5
	c-84.3-5.7-136-68.5-136-166.4C-0.1,63.5,56.9-0.1,148.7-0.1c94.3,0,148.8,60.6,148.8,166.4C297.5,268.7,246.5,329.2,157.7,333z"/>
</svg>
