<?xml version="1.0" encoding="utf-8"?>
<!-- Generator: Adobe Illustrator 26.3.1, SVG Export Plug-In . SVG Version: 6.00 Build 0)  -->
<svg version="1.1" id="Layer_1" xmlns="http://www.w3.org/2000/svg" xmlns:xlink="http://www.w3.org/1999/xlink" x="0px" y="0px"
	 viewBox="0 0 297.5 622.1" style="enable-background:new 0 0 297.5 622.1;" xml:space="preserve">
<style type="text/css">
	.st0{fill-rule:evenodd;clip-rule:evenodd;fill:#FF0F00;}
</style>
<path class="st0" d="M10.4,343.4C2.9,375.3,0,403.2,0,433.3c0,125.2,49.9,188.8,148.4,188.8c99.7,0,148.8-59.4,148.8-181.5
	c0-31.8-7.4-71.8-17-97.2H153c-5.4,44.5-10.1,88.4-10.3,99l0,0.2c-0.4,22.3-1.1,54.9-11.2,63.8c-3.7,3.2-5.7,4.6-11.7,3.7
	c-5.9-0.9-7.5-2.6-10.1-6.8c-6.9-10.8,1.2-40.6,7-61.8c0.2-0.9,0.5-1.8,0.7-2.7c2.7-10.1,9.9-52.1,16.8-95.4H10.4z M154.3,333.3
	c5.8-47.3,12-92.5,13.7-96.1c3.4-7,12-12.4,21.1-18.1c9.2-5.7,18.8-11.7,24-20c26.5-42.4,6.4-95.1-34.6-100.9
	c-43.1-6.1-75.5,39.2-61.8,87.3c2.7,9.4,10.3,17.8,17.5,25.8c7.2,7.9,14,15.5,15.3,23.3c0.7,4.1-6,50.5-13.5,98.4
	C51.6,327.1,0,264.3,0,166.4C0,63.7,56.9,0,148.8,0c94.3,0,148.8,60.6,148.8,166.4C297.5,270.2,245.2,330.9,154.3,333.3z"/>
</svg>
