<?xml version="1.0" encoding="utf-8"?>
<!-- Generator: Adobe Illustrator 26.3.1, SVG Export Plug-In . SVG Version: 6.00 Build 0)  -->
<svg version="1.1" id="Layer_1" xmlns="http://www.w3.org/2000/svg" xmlns:xlink="http://www.w3.org/1999/xlink" x="0px" y="0px"
	 viewBox="0 0 297.5 622.1" style="enable-background:new 0 0 297.5 622.1;" xml:space="preserve">
<style type="text/css">
	.st0{fill-rule:evenodd;clip-rule:evenodd;fill:#FF0F00;}
</style>
<path class="st0" d="M10.4,343.4C3,375.3,0.1,403.2,0.1,433.3c0,125.2,49.9,188.8,148.4,188.8c99.7,0,148.8-59.4,148.8-181.5
	c0-31.8-7.4-71.8-17-97.2H174l-7.2,102.3c-1.7,14.2-3.4,28.2-5.1,42.3l-0.1,0.7c-1.6,13.4-3.3,26.8-4.9,40.3c0,0.4-0.2,0.8-0.4,1.1
	c-0.2,0.3-0.5,0.6-0.8,0.8c-0.3,0.2-0.7,0.4-1,0.5c-0.4,0.1-0.8,0.1-1.1,0l-0.1,0c-0.6-0.1-1.2-0.5-1.6-1c-0.4-0.5-0.6-1.2-0.6-1.8
	c0.3-11.9,0.6-24,0.9-36.1l0,0v0v0c0.3-13,0.6-26,1-38.8l0.8-22.1l5.9-88H124l2.1,100c-0.4,14.4-0.8,28.6-1.3,42.8l0,0.2
	c-0.4,13.5-0.8,27.1-1.2,40.7c0,0.4-0.1,0.8-0.3,1.1c-0.2,0.3-0.4,0.7-0.7,0.9c-0.3,0.3-0.6,0.4-1,0.6c-0.4,0.1-0.8,0.2-1.1,0.1
	l-0.1,0c-0.6-0.1-1.2-0.4-1.7-0.9c-0.4-0.5-0.7-1.1-0.8-1.7c-0.8-11.9-1.6-24-2.4-36l0,0l0,0c-0.9-13-1.7-26-2.6-38.8l-1.2-22.1
	l-2.2-86.9H10.4z M123.7,331.6l-0.7-31.9l-4.9-162.2l-2.8-73.7c0-0.4-0.1-0.7-0.3-1.1c-0.2-0.3-0.4-0.6-0.6-0.9
	c-0.3-0.2-0.6-0.4-0.9-0.6c-0.3-0.1-0.7-0.2-1.1-0.2l-7,0.4c-0.7,0-1.4,0.4-1.9,0.9c-0.5,0.5-0.8,1.2-0.7,2l6.6,264.6
	C40.9,312.9,0.1,253.6,0.1,166.4C0.1,63.7,57,0,148.8,0c94.3,0,148.8,60.6,148.8,166.4c0,95.7-44.5,154.8-122.8,165.2l2.1-29.2
	l10-161.9l4-73.7c0-0.4,0-0.7-0.2-1.1c-0.1-0.3-0.3-0.7-0.6-0.9c-0.2-0.3-0.6-0.5-0.9-0.7c-0.3-0.2-0.7-0.2-1.1-0.3l-7-0.3
	c-0.7,0-1.4,0.2-2,0.7c-0.5,0.5-0.9,1.2-0.9,1.9L160.4,333c-3.8,0.2-7.6,0.3-11.6,0.3C140.1,333.3,131.8,332.7,123.7,331.6z"/>
</svg>
