<svg width="623" height="298" viewBox="0 0 623 298" fill="none" xmlns="http://www.w3.org/2000/svg">
<path fill-rule="evenodd" clip-rule="evenodd" d="M278.701 10.389C246.874 2.90892 218.918 0 188.811 0C63.6538 0 0 49.867 0 148.354C0 248.088 59.3529 297.124 181.499 297.124C213.326 297.124 253.325 289.71 278.701 280.152V160.725L106.992 164.429C104.133 164.429 101.614 163.337 101.614 160.335V149.282V138.228C101.614 135.363 104.133 134.135 106.992 134.135L278.701 135.131V10.389ZM289.127 160.5L328.435 159.653C332.4 163.459 339.12 170.911 345.716 178.224C352.596 185.852 359.339 193.33 362.676 196.36C390.178 196.565 523.398 176.847 553.691 141.981V136.727L289.284 135.193C295.34 51.3537 358.051 0 455.678 0C558.471 0 622.124 56.9315 622.124 148.77C622.124 243.102 561.481 297.54 455.678 297.54C354.341 297.54 294.037 247.6 289.127 160.5Z" fill="#FF0F00"/>
</svg>
