<svg width="623" height="298" viewBox="0 0 623 298" fill="none" xmlns="http://www.w3.org/2000/svg">
<path fill-rule="evenodd" clip-rule="evenodd" d="M278.701 10.389C246.874 2.90892 218.918 0 188.811 0C63.6538 0 0 49.867 0 148.354C0 248.088 59.3529 297.124 181.499 297.124C213.326 297.124 253.325 289.71 278.701 280.152V156.455C219.425 148.999 136.626 139.123 108.963 136.386C103.571 135.914 100.856 134.677 101.203 130.711L101.556 126.674C101.903 122.707 104.791 121.961 110.183 122.433C123.34 123.477 160.768 126.294 209.089 129.93C230.537 131.544 254.131 133.319 278.701 135.173V10.389ZM288.991 157.755C318.285 161.474 339.921 164.382 342.764 165.125C356.749 168.204 381.638 182.944 382.964 183.916C384.086 184.799 385.438 185.488 386.889 185.83C388.564 186.048 390.333 185.988 391.993 185.563C393.511 185.26 394.557 186.08 395.704 186.98C397.001 187.997 398.427 189.116 400.81 188.832C402.364 188.678 403.192 188.093 404.012 187.512C404.808 186.95 405.597 186.392 407.035 186.236C408.545 186.08 409.507 186.64 410.49 187.213C411.455 187.775 412.44 188.349 413.984 188.272C415.727 188.209 416.665 187.373 417.617 186.523C418.559 185.683 419.516 184.829 421.282 184.7C422.986 184.564 424.095 185.195 425.186 185.816C426.279 186.439 427.355 187.051 428.995 186.874C430.633 186.696 431.497 185.897 432.361 185.098C433.224 184.3 434.088 183.501 435.727 183.323C437.359 183.146 438.434 183.735 439.516 184.327C440.606 184.924 441.702 185.524 443.382 185.349C445.091 185.177 445.991 184.363 446.882 183.558C447.773 182.753 448.654 181.956 450.324 181.817C451.966 181.674 453.009 182.27 454.047 182.863C455.076 183.45 456.099 184.034 457.693 183.889C459.384 183.748 460.266 182.933 461.15 182.116C462.012 181.319 462.876 180.521 464.494 180.345C466.075 180.202 467.126 180.795 468.18 181.389C469.261 181.999 470.344 182.61 472.003 182.43C473.642 182.252 474.487 181.469 475.331 180.687C476.176 179.904 477.02 179.122 478.659 178.944C480.305 178.765 481.351 179.345 482.408 179.93C483.455 180.51 484.512 181.096 486.174 180.958C487.848 180.783 488.711 179.984 489.575 179.185C490.439 178.387 491.303 177.588 492.976 177.413C494.653 177.203 495.781 177.819 496.909 178.435C498.037 179.052 499.165 179.668 500.841 179.458C502.48 179.28 503.326 178.48 504.172 177.679C505.018 176.879 505.865 176.079 507.503 175.901C509.135 175.724 510.209 176.33 511.289 176.94C512.377 177.555 513.472 178.173 515.152 177.998C516.813 177.847 517.749 177.076 518.717 176.278C519.614 175.538 520.539 174.776 522.094 174.466C524.607 173.972 527.153 173.909 529.731 174.278C532.526 174.594 533.842 174.067 536.329 173.071C543.367 170.047 549.901 166.336 555.925 162.01C557.653 160.806 558.477 159.45 557.882 158.185C557.703 157.812 557.448 157.505 557.046 157.255C556.651 156.935 556.243 156.757 555.753 156.714C508.021 152.576 391.725 143.706 289.23 135.968C294.954 51.6703 357.751 0 455.678 0C558.471 0 622.124 56.9315 622.124 148.77C622.124 243.102 561.481 297.54 455.678 297.54C353.281 297.54 292.78 246.55 288.991 157.755Z" fill="#FF0F00"/>
</svg>
