<?xml version="1.0" encoding="utf-8"?>
<!-- Generator: Adobe Illustrator 26.3.1, SVG Export Plug-In . SVG Version: 6.00 Build 0)  -->
<svg version="1.1" id="Layer_1" xmlns="http://www.w3.org/2000/svg" xmlns:xlink="http://www.w3.org/1999/xlink" x="0px" y="0px"
	 viewBox="0 0 297.5 622.1" style="enable-background:new 0 0 297.5 622.1;" xml:space="preserve">
<style type="text/css">
	.st0{fill-rule:evenodd;clip-rule:evenodd;fill:#FF0F00;}
</style>
<path class="st0" d="M10.3,343.4c-7.5,31.8-10.4,59.8-10.4,89.9c0,125.2,49.9,188.8,148.4,188.8c99.7,0,148.8-59.4,148.8-181.5
	c0-31.8-7.4-71.8-17-97.2H168.7c12.4,71.9,27.4,157.8,27.4,157.8c0.4,3-0.6,5.8-4.4,6.3l-14.1,2l-14,2c-3.7,0.5-5.6-1.9-6-4.9
	c0,0-9.4-90-17.2-163.2H10.3z M166.8,332.5c-7.1-41.2-13-75.8-14.1-83.5c-0.6-5,4.5-10.9,9.8-17.3c4.9-5.8,10.1-12,11.4-18
	c1.2-4.8,1.5-9.7,1.1-14.6c-0.4-9-22.7-90-27.7-103.5c-0.6-1.5-2-1.9-3.3-1.7c-1.5,0.3-2.4,1.9-2.3,3c1.1,7.1,2.2,13.9,3.2,20.8
	c1.1,6.9,2.1,13.7,3.2,20.8c0.2,1.5-0.5,3-2.5,3.5c-2.4,0.5-3.9-1.4-4.2-2.6c-4.1-14.7-7.2-27.4-10.5-41.1c-0.4-1.9-1.9-2.3-2.9-2.2
	c-1.1,0.2-2.5,1.2-2.3,3.3c0.7,8.1,1.6,16,2.4,24.2c0.6,5.7,1.2,11.5,1.8,17.5c0.2,3.1-2.5,3.8-3.4,3.9c-0.9,0.1-3.8,0.3-4.4-2.8
	c-1.3-6.9-2.5-13.6-3.6-20.1c-1.2-7.1-2.5-14-3.8-21c-0.4-2.1-2-2.7-3.1-2.6c-0.9,0.1-2.3,0.9-2.2,2.9c0.7,14.1,1.1,27.2,1.3,42.4
	c0,1.2-0.8,3.4-3.3,3.6c-2,0.1-3.1-1.2-3.3-2.7c-0.9-7.1-1.8-14-2.6-20.9c-0.9-6.9-1.7-13.8-2.6-20.9c-0.2-1.1-1.5-2.3-3-2.3
	c-1.4,0.2-2.6,0.9-2.7,2.5c-1.1,14.4-0.2,98.4,2,107.2c0.9,4.8,2.6,9.5,5.1,13.7c2.9,5.3,9.5,9.8,15.9,14.1c6.9,4.6,13.5,9,14.3,14
	c1,7.4,4.7,40.7,9,80.9C53,328.8-0.1,265.7-0.1,166.4C-0.1,63.7,56.9,0,148.7,0c94.3,0,148.8,60.6,148.8,166.4
	C297.5,265.3,250,325.1,166.8,332.5z"/>
</svg>
