<svg width="623" height="298" viewBox="0 0 623 298" fill="none" xmlns="http://www.w3.org/2000/svg">
<path fill-rule="evenodd" clip-rule="evenodd" d="M278.701 10.389C246.874 2.90892 218.918 0 188.811 0C63.6538 0 0 49.867 0 148.354C0 248.088 59.3529 297.124 181.499 297.124C213.326 297.124 253.325 289.71 278.701 280.152V153.026C234.18 147.643 190.289 142.886 179.707 142.751L179.473 142.746C157.191 142.302 124.539 141.652 115.68 131.544C112.485 127.855 111.114 125.869 111.959 119.852C112.863 113.912 114.593 112.363 118.749 109.707C129.537 102.829 159.394 110.925 180.58 116.67C181.494 116.917 182.391 117.16 183.27 117.398C193.346 120.077 235.348 127.302 278.701 134.212V10.389ZM288.872 154.265C336.164 160.072 381.347 166.242 385.004 167.956C392.05 171.382 397.43 180.001 403.089 189.068C408.804 198.225 414.805 207.838 423.094 213.022C465.444 239.52 518.19 219.427 523.956 178.389C530.017 135.255 484.709 102.895 436.65 116.546C427.232 119.235 418.859 126.809 410.877 134.03C402.951 141.2 395.411 148.021 387.617 149.364C383.556 150.082 337.08 143.412 289.236 135.881C294.997 51.6348 357.784 0 455.678 0C558.471 0 622.124 56.9315 622.124 148.77C622.124 243.102 561.481 297.54 455.678 297.54C351.947 297.54 291.211 245.212 288.872 154.265Z" fill="#FF0F00"/>
</svg>
