<svg width="623" height="298" viewBox="0 0 623 298" fill="none" xmlns="http://www.w3.org/2000/svg">
<path fill-rule="evenodd" clip-rule="evenodd" d="M278.701 10.389C246.874 2.90892 218.918 0 188.811 0C63.6538 0 0 49.867 0 148.354C0 248.088 59.3529 297.124 181.499 297.124C213.326 297.124 253.325 289.71 278.701 280.152V183.745L87.8843 188.762C84.4896 188.851 81.6639 186.173 81.5698 182.778C81.4757 179.383 84.1487 176.552 87.5432 176.453L278.701 170.878V131.889L104.821 120.16C101.432 119.932 98.8693 117.002 99.0929 113.612C99.3165 110.223 102.242 107.655 105.631 107.874L278.701 119.048V10.389ZM289.489 132.616L561.178 150.942C564.936 151.195 568.186 148.351 568.434 144.592C568.682 140.833 565.834 137.586 562.076 137.344L291.08 119.847C303.321 45.1307 364.157 0 455.678 0C558.471 0 622.124 56.9315 622.124 148.77C622.124 243.102 561.481 297.54 455.678 297.54C363.585 297.54 305.381 256.296 291.843 183.4L545.121 176.742C548.886 176.643 551.856 173.507 551.752 169.741C551.647 165.976 548.508 163.009 544.743 163.119L289.957 170.55C289.19 163.548 288.802 156.286 288.802 148.77C288.802 143.258 289.033 137.872 289.489 132.616Z" fill="#FF0F00"/>
</svg>
