<svg width="623" height="298" viewBox="0 0 623 298" fill="none" xmlns="http://www.w3.org/2000/svg">
<path fill-rule="evenodd" clip-rule="evenodd" d="M278.701 10.389C246.874 2.90892 218.918 0 188.811 0C63.6538 0 0 49.867 0 148.354C0 248.088 59.3529 297.124 181.499 297.124C213.326 297.124 253.325 289.71 278.701 280.152V173.951L176.359 166.745C162.194 165.021 148.138 163.31 134.084 161.599L133.431 161.52C120.042 159.891 106.653 158.261 93.1723 156.62C92.7887 156.574 92.4187 156.45 92.0857 156.254C91.7526 156.058 91.4638 155.795 91.2375 155.482C91.0112 155.169 90.8524 154.812 90.7708 154.435C90.6893 154.057 90.687 153.667 90.764 153.288L90.7805 153.23C90.9166 152.592 91.2719 152.022 91.7848 151.619C92.2977 151.216 92.9357 151.005 93.5877 151.024C105.513 151.343 117.599 151.641 129.686 151.939L129.705 151.94L129.714 151.94L129.722 151.94C142.737 152.261 155.753 152.583 168.571 152.93L190.672 153.749L278.701 159.636V123.906L178.721 126.043C164.371 125.621 150.133 125.201 135.897 124.782L135.661 124.775C122.124 124.377 108.587 123.978 94.9565 123.576C94.5703 123.566 94.1904 123.476 93.8409 123.312C93.4913 123.147 93.1797 122.912 92.9257 122.621C92.6717 122.33 92.4809 121.989 92.3651 121.62C92.2494 121.252 92.2113 120.863 92.2534 120.479L92.2645 120.42C92.3416 119.772 92.6433 119.172 93.1172 118.723C93.591 118.275 94.207 118.007 94.858 117.966C106.763 117.192 118.826 116.382 130.89 115.573L130.902 115.572L130.907 115.571C143.903 114.699 156.9 113.827 169.701 112.999L191.784 111.792L278.701 109.627V10.389ZM290.502 123.653L322.395 122.971L484.569 118.107L558.298 115.307C558.668 115.293 559.031 115.206 559.367 115.051C559.703 114.895 560.005 114.674 560.255 114.402C560.505 114.129 560.698 113.809 560.824 113.461C560.949 113.112 561.005 112.743 560.987 112.373L560.636 105.332C560.599 104.603 560.279 103.917 559.744 103.421C559.209 102.924 558.501 102.657 557.771 102.675L293.183 109.266C309.249 40.8908 368.562 0 455.678 0C558.471 0 622.124 56.9315 622.124 148.77C622.124 243.102 561.481 297.54 455.678 297.54C360.015 297.54 300.919 253.036 290.471 174.78L319.712 176.839L481.65 186.842L555.326 190.804C555.695 190.824 556.065 190.771 556.414 190.647C556.762 190.522 557.083 190.33 557.357 190.082C557.631 189.833 557.853 189.532 558.01 189.197C558.167 188.861 558.256 188.498 558.272 188.129L558.566 181.085C558.596 180.356 558.34 179.644 557.853 179.1C557.366 178.557 556.685 178.225 555.957 178.177L289.118 160.333C288.908 156.548 288.802 152.693 288.802 148.77C288.802 140.079 289.376 131.7 290.502 123.653Z" fill="#FF0F00"/>
</svg>
