<svg width="623" height="298" viewBox="0 0 623 298" fill="none" xmlns="http://www.w3.org/2000/svg">
<path fill-rule="evenodd" clip-rule="evenodd" d="M278.701 10.389C246.874 2.90892 218.918 0 188.811 0C63.6538 0 0 49.867 0 148.354C0 248.088 59.3529 297.124 181.499 297.124C213.326 297.124 253.325 289.71 278.701 280.152V168.406C221.393 173.618 145.202 180.735 120.654 183.899C115.597 184.61 112.826 183.972 112.241 179.805L111.646 175.571C111.06 171.404 113.548 170.027 118.605 169.316C143.69 165.538 221.813 150.764 278.701 139.846V10.389ZM289.64 167.414C322.777 164.413 347.25 162.257 347.25 162.257C350.456 162.08 353.569 161.231 356.47 159.864C360.697 157.564 364.466 155.159 367.814 153.022C375.901 147.861 381.528 144.269 385.196 147.534C388.225 150.143 390.787 153.087 393.374 156.06C403.812 168.055 414.673 180.536 458.431 173.56C489.293 168.605 526.891 140.156 524.011 119.659C521.131 99.1614 477.159 82.2476 446.127 85.993C402.182 91.2918 395.158 106.324 388.416 120.751C386.746 124.325 385.093 127.861 382.901 131.203C380.199 135.345 373.744 133.43 364.445 130.672C360.701 129.561 356.497 128.314 351.891 127.27C348.725 126.756 345.508 126.865 342.368 127.512C342.348 127.539 319.963 131.909 289.112 137.845C294.026 52.4382 357.026 0 455.678 0C558.47 0 622.124 56.9315 622.124 148.77C622.124 243.102 561.481 297.54 455.678 297.54C357.053 297.54 297.295 250.237 289.64 167.414Z" fill="#FF0F00"/>
</svg>
