<?xml version="1.0" encoding="utf-8"?>
<!-- Generator: Adobe Illustrator 26.3.1, SVG Export Plug-In . SVG Version: 6.00 Build 0)  -->
<svg version="1.1" id="Layer_1" xmlns="http://www.w3.org/2000/svg" xmlns:xlink="http://www.w3.org/1999/xlink" x="0px" y="0px"
	 viewBox="0 0 297.5 622.1" style="enable-background:new 0 0 297.5 622.1;" xml:space="preserve">
<style type="text/css">
	.st0{fill-rule:evenodd;clip-rule:evenodd;fill:#FF0F00;}
</style>
<path class="st0" d="M10.6,343.4c-7.5,31.8-10.4,59.8-10.4,89.9c0,125.2,49.9,188.8,148.4,188.8c99.7,0,148.8-59.4,148.8-181.5
	c0-31.8-7.4-71.8-17-97.2H168.6c5.2,57.3,12.3,133.5,15.5,158c0.7,5.1,0.1,7.8-4.1,8.4l-4.2,0.6c-4.2,0.6-5.5-1.9-6.3-7
	c-3.8-25.1-18.6-103.2-29.5-160.1H10.6z M167.6,332.4c-3-33.1-5.2-57.6-5.2-57.6c-0.2-3.2-1-6.3-2.4-9.2c-2.3-4.2-4.7-8-6.8-11.3
	c-5.2-8.1-8.8-13.7-5.5-17.4c2.6-3,5.6-5.6,8.5-8.2c12-10.4,24.5-21.3,17.5-65.1c-5-30.9-33.4-68.5-53.9-65.6
	c-20.5,2.9-37.4,46.9-33.7,77.9c5.3,43.9,20.3,51,34.8,57.7c3.6,1.7,7.1,3.3,10.5,5.5c4.1,2.7,2.2,9.2-0.5,18.5
	c-1.1,3.7-2.4,7.9-3.4,12.6c-0.5,3.2-0.4,6.4,0.2,9.5c0,0,4.4,22.4,10.3,53.3C52.6,328,0.2,265,0.2,166.4C0.2,63.6,57.1-0.1,149-0.1
	c94.3,0,148.8,60.6,148.8,166.4C297.7,265,250.4,324.8,167.6,332.4z"/>
</svg>
