<?xml version="1.0" encoding="utf-8"?>
<!-- Generator: Adobe Illustrator 26.3.1, SVG Export Plug-In . SVG Version: 6.00 Build 0)  -->
<svg version="1.1" id="Layer_1" xmlns="http://www.w3.org/2000/svg" xmlns:xlink="http://www.w3.org/1999/xlink" x="0px" y="0px"
	 viewBox="0 0 297.5 622.1" style="enable-background:new 0 0 297.5 622.1;" xml:space="preserve">
<style type="text/css">
	.st0{fill-rule:evenodd;clip-rule:evenodd;fill:#FF0F00;}
</style>
<path class="st0" d="M10.4,343.4C2.9,375.3,0,403.2,0,433.3c0,125.2,49.9,188.8,148.4,188.8c99.7,0,148.8-59.4,148.8-181.5
	c0-31.8-7.4-71.8-17-97.2H167.8l-22.1,103.7c-3.6,13.6-7.2,27.1-10.8,40.6l-0.3,1c-3.5,13.1-7,26.2-10.5,39.4
	c-0.1,0.4-0.3,0.7-0.5,1c-0.2,0.3-0.5,0.6-0.9,0.7c-0.3,0.2-0.7,0.3-1.1,0.3c-0.4,0-0.8,0-1.1-0.2l-0.1,0c-0.6-0.2-1.1-0.7-1.5-1.2
	c-0.3-0.6-0.4-1.2-0.3-1.9c2-11.8,4-23.7,5.9-35.6l0,0c2.1-12.8,4.3-25.7,6.4-38.3l3.9-21.8l18.4-87.7h-36.1l-11.4,95.7
	c-2.4,13.8-4.7,27.5-7,41.2l0,0.3l-0.2,1.1c-2.3,13.3-4.5,26.6-6.8,40c-0.1,0.4-0.2,0.7-0.4,1.1c-0.2,0.3-0.5,0.6-0.8,0.8
	c-0.3,0.2-0.7,0.4-1.1,0.4c-0.4,0.1-0.8,0-1.1,0l-0.1,0c-0.6-0.2-1.2-0.5-1.6-1.1s-0.6-1.2-0.5-1.8c0.9-11.9,1.8-24,2.6-36l0,0l0,0
	l0,0c0.9-13,1.9-26,2.9-38.8l1.9-22l9.3-80.7H10.4z M118.6,330.8l4.1-34.5l17.8-161.3l7.5-73.4c0-0.4,0-0.7-0.1-1.1
	c-0.1-0.4-0.3-0.7-0.5-1c-0.2-0.3-0.5-0.5-0.9-0.7c-0.3-0.2-0.7-0.3-1.1-0.3l-7-0.6c-0.7-0.1-1.5,0.2-2,0.6c-0.6,0.5-0.9,1.1-1,1.8
	l-30.8,267.3C39,310.1,0,251.6,0,166.4C0,63.7,56.9,0,148.8,0c94.3,0,148.8,60.6,148.8,166.4c0,97.5-46.2,157-127.3,165.8l5.5-25.7
	l32.4-159l14.2-72.4c0.1-0.4,0.1-0.7,0-1.1c-0.1-0.4-0.2-0.7-0.4-1c-0.2-0.3-0.5-0.6-0.8-0.8c-0.3-0.2-0.7-0.3-1-0.4l-6.9-1.3
	c-0.7-0.1-1.5,0-2.1,0.4c-0.6,0.4-1,1-1.2,1.7l-54.5,260.4c-2.2,0.1-4.4,0.1-6.6,0.1C138.3,333.3,128.2,332.5,118.6,330.8z"/>
</svg>
