<?xml version="1.0" encoding="utf-8"?>
<!-- Generator: Adobe Illustrator 26.3.1, SVG Export Plug-In . SVG Version: 6.00 Build 0)  -->
<svg version="1.1" id="Layer_1" xmlns="http://www.w3.org/2000/svg" xmlns:xlink="http://www.w3.org/1999/xlink" x="0px" y="0px"
	 viewBox="0 0 297.5 622" style="enable-background:new 0 0 297.5 622;" xml:space="preserve">
<style type="text/css">
	.st0{fill-rule:evenodd;clip-rule:evenodd;fill:#FF0F00;}
</style>
<path class="st0" d="M10.4,343.4C2.9,375.2,0,403.2,0,433.3c0,125.2,49.9,188.8,148.4,188.8c99.7,0,148.8-59.4,148.8-181.5
	c0-31.8-7.4-71.8-17-97.2H126.4c-1.2,5.3-0.9,9-0.9,9v147.7c0,0.7,0,1.5,0,2.4c0.2,7.5,0.5,19.4-13.1,19.4c-6.9,0-6.2-14.7-6.2-14.7
	s-1.1-131.7-1.2-163.7H10.4z M130.8,332.4c1.2-2,2.7-4,4.5-6c1.5-1.6,2.9-3.1,4.2-4.5c3.1-3.3,6-6.4,10-10.5
	c8.8-9.2,15.3-16,20.3-21.2c11.7-12.2,15.7-16.3,23.5-25c10.1-11.2,18.1-24.4,22.9-39.5c2.2-7.4,3.7-15.3,3.9-23.1
	c0.5-24.1,0.4-48.4,0-72.5c-0.1-5.8-1.8-12.4-4.6-17.1c-10.8-18.3-26.5-30.6-42.5-42.1c-3.9-2.9-7.3-0.5-7.8,4.8
	c-0.2,1.3-0.1,2.7-0.1,4c0,0.4,0,0.9,0,1.3v69.5v66c0,21.2-5.6,39.1-19.3,54.6c-2.5,2.7-4.7,5.4-7,8.1c-3.2,3.8-6.5,7.7-10.7,12.2
	c-5.7,6.1-10,10.5-10.8,11.2c0,0-8.4,7.7-11.3,25.4C39.6,311,0,252.2,0,166.4C0,63.6,56.9,0,148.8,0c94.3,0,148.8,60.6,148.8,166.4
	s-54.4,166.9-148.8,166.9C142.6,333.3,136.6,333,130.8,332.4z"/>
</svg>
