<svg width="623" height="298" viewBox="0 0 623 298" fill="none" xmlns="http://www.w3.org/2000/svg">
<path fill-rule="evenodd" clip-rule="evenodd" d="M278.701 10.389C246.874 2.90892 218.918 0 188.811 0C63.6538 0 0 49.867 0 148.354C0 248.088 59.3529 297.124 181.499 297.124C213.326 297.124 253.325 289.71 278.701 280.152V158.654C206.873 158.634 120.055 158.607 120.055 158.607C117.331 158.607 114.812 157.517 112.905 155.608C110.998 153.699 109.909 151.108 109.909 148.45C109.909 145.791 110.998 143.201 112.905 141.292C114.812 139.383 117.399 138.292 120.055 138.292L120.732 138.293C128.957 138.308 210.574 138.455 278.701 138.553V10.389ZM289.032 158.656C328.417 158.667 361.518 158.676 370.306 158.676C370.306 158.676 384.606 158.812 386.649 160.039C387.143 160.322 388.451 161.712 390.353 163.733C395.789 169.513 406.077 180.449 416.066 185.399C438.81 196.647 460.124 193.579 470.475 191.943C470.475 191.943 495.534 187.921 514.805 172.105C520.048 167.402 526.041 159.153 526.041 148.654C526.041 139.11 520.185 130.043 514.805 125.203C495.534 109.319 470.475 105.365 470.475 105.365C460.124 103.729 438.81 100.661 416.066 111.91C405.904 116.869 395.473 128.039 390.117 133.776C388.331 135.688 387.109 136.997 386.649 137.27C384.606 138.497 370.306 138.633 370.306 138.633C361.542 138.657 328.453 138.623 289.072 138.568C293.672 52.7341 356.748 0 455.678 0C558.47 0 622.124 56.9315 622.124 148.77C622.124 243.102 561.481 297.54 455.678 297.54C353.628 297.54 293.191 246.895 289.032 158.656Z" fill="#FF0F00"/>
</svg>
