<?xml version="1.0" encoding="utf-8"?>
<!-- Generator: Adobe Illustrator 26.3.1, SVG Export Plug-In . SVG Version: 6.00 Build 0)  -->
<svg version="1.1" id="Layer_1" xmlns="http://www.w3.org/2000/svg" xmlns:xlink="http://www.w3.org/1999/xlink" x="0px" y="0px"
	 viewBox="0 0 297.5 622.1" style="enable-background:new 0 0 297.5 622.1;" xml:space="preserve">
<style type="text/css">
	.st0{fill-rule:evenodd;clip-rule:evenodd;fill:#FF0F00;}
</style>
<path class="st0" d="M10.4,342.5C2.9,374.4,0,402.3,0,432.4c0,125.2,49.9,188.8,148.4,188.8c99.7,0,148.8-59.4,148.8-181.5
	c0-31.8-7.4-71.8-17-97.2H158.9L179.2,509c0.4,2.8-0.4,5.6-2,7.9c-1.7,2.3-4.2,3.7-7,4.1c-2.8,0.4-5.6-0.3-7.9-2
	c-2.2-1.7-3.7-4.2-4.1-7l-24.9-169.4H10.4z M157.7,332.3l-2.5-20.6c-1.3-9.3,5.3-15.1,9.4-18.7c1-0.8,1.8-1.6,2.3-2.2
	c5.4-6,4.7-11.1,3.9-16.1c-0.1-0.3-0.1-0.7-0.2-1l-26.3-166.1c-0.1-0.4-0.1-0.9-0.2-1.4c-0.8-5.9-2.6-18.9-14.5-23.6
	c-8.1-3.3-12.2-4.9-21.5-8.4c-7.2-2.2-14,3.8-13,10.1l36.4,247.4C49.9,324.1,0,261.8,0,165.6C0,62.8,56.9-0.9,148.8-0.9
	c94.3,0,148.8,60.6,148.8,166.4C297.5,268,246.5,328.5,157.7,332.3z"/>
</svg>
