<?xml version="1.0" encoding="utf-8"?>
<!-- Generator: Adobe Illustrator 26.3.1, SVG Export Plug-In . SVG Version: 6.00 Build 0)  -->
<svg version="1.1" id="Layer_1" xmlns="http://www.w3.org/2000/svg" xmlns:xlink="http://www.w3.org/1999/xlink" x="0px" y="0px"
	 viewBox="0 0 297.5 622.1" style="enable-background:new 0 0 297.5 622.1;" xml:space="preserve">
<style type="text/css">
	.st0{fill-rule:evenodd;clip-rule:evenodd;fill:#FF0F00;}
</style>
<path class="st0" d="M10.4,343.3C2.9,375.1,0,403.1,0,433.2C0,558.4,49.9,622,148.4,622c99.7,0,148.8-59.4,148.8-181.5
	c0-31.8-7.4-71.8-17-97.2H158.7c0,71.8,0,158.6,0,158.6c0,2.7-1.1,5.2-3,7.1c-1.9,1.9-4.5,3-7.2,3c-2.7,0-5.2-1.1-7.2-3
	c-1.9-1.9-3-4.5-3-7.1l0-0.7c0-8.2,0.2-89.8,0.3-158H10.4z M158.7,333c0-39.4,0-72.5,0-81.3c0,0,0.1-14.3,1.4-16.3
	c0.3-0.5,1.7-1.8,3.7-3.7c5.8-5.4,16.7-15.7,21.7-25.7c11.2-22.7,8.2-44.1,6.5-54.4c0,0-4-25.1-19.8-44.3
	c-4.7-5.2-13-11.2-23.5-11.2c-9.5,0-18.6,5.9-23.5,11.2c-15.9,19.3-19.8,44.3-19.8,44.3c-1.6,10.4-4.7,31.7,6.5,54.4
	c5,10.2,16.1,20.6,21.9,25.9c1.9,1.8,3.2,3,3.5,3.5c1.2,2,1.4,16.3,1.4,16.3c0,8.8,0,41.9-0.1,81.2C52.7,328.3,0,265.3,0,166.3
	C0,63.5,56.9-0.1,148.8-0.1c94.3,0,148.8,60.6,148.8,166.4C297.5,268.4,246.9,328.8,158.7,333z"/>
</svg>
