<svg width="623" height="298" viewBox="0 0 623 298" fill="none" xmlns="http://www.w3.org/2000/svg">
<path fill-rule="evenodd" clip-rule="evenodd" d="M278.701 10.389C246.874 2.90892 218.918 0 188.811 0C63.6538 0 0 49.867 0 148.354C0 248.088 59.3529 297.124 181.499 297.124C213.326 297.124 253.325 289.71 278.701 280.152V158.472C234.19 159.34 190.607 160.729 180.183 162.059L179.95 162.087C157.824 164.749 125.399 168.651 115.22 159.875C111.543 156.666 109.909 154.891 109.909 148.814C109.977 142.807 111.475 141.031 115.22 137.823C124.947 129.51 155.64 133.371 177.419 136.11C178.358 136.228 179.28 136.344 180.183 136.457C190.666 137.724 234.222 139.049 278.701 139.854V10.389ZM289.014 158.28C336.968 157.434 383.106 157.245 386.99 158.441C394.443 160.853 400.97 168.639 407.836 176.83C414.769 185.102 422.049 193.786 430.979 197.766C476.603 218.111 526.041 190.87 526.041 149.429C526.041 105.871 476.671 80.1328 430.979 100.341C422.027 104.315 414.79 112.982 407.89 121.243C401.039 129.447 394.521 137.251 386.99 139.666C383.104 140.93 336.96 140.809 288.999 140.031C292.958 53.3335 356.187 0 455.678 0C558.47 0 622.124 56.9315 622.124 148.77C622.124 243.102 561.481 297.54 455.678 297.54C353.483 297.54 293.019 246.751 289.014 158.28Z" fill="#FF0F00"/>
</svg>
