<?xml version="1.0" encoding="utf-8"?>
<!-- Generator: Adobe Illustrator 26.3.1, SVG Export Plug-In . SVG Version: 6.00 Build 0)  -->
<svg version="1.1" id="Layer_1" xmlns="http://www.w3.org/2000/svg" xmlns:xlink="http://www.w3.org/1999/xlink" x="0px" y="0px"
	 viewBox="0 0 297.5 622.1" style="enable-background:new 0 0 297.5 622.1;" xml:space="preserve">
<style type="text/css">
	.st0{fill-rule:evenodd;clip-rule:evenodd;fill:#FF0F00;}
</style>
<path class="st0" d="M10.4,343.4C2.9,375.3,0,403.2,0,433.3c0,125.2,49.9,188.8,148.4,188.8c99.7,0,148.8-59.4,148.8-181.5
	c0-31.8-7.4-71.8-17-97.2H161.4c-0.1,11.7-0.3,23.5-0.6,35c-0.6,26.4-1.1,50.5,0.6,64.5c2.6,21.7,6.2,53.5-2,63.4
	c-3,3.6-4.7,5.2-10.4,5.2c-5.7-0.1-7.3-1.5-10.4-5.2c-7.8-9.4-4.3-38.8-1.8-60c0.1-1.1,0.3-2.3,0.4-3.4c1.7-14.6,1.2-38.9,0.7-65.4
	c-0.2-11.2-0.5-22.7-0.6-34.1H10.4z M161.4,332.9c0.2-50.3,7.5-78,13.4-90.9c8.9-18.5,15-34,13.8-56.7c-0.9-19.5-10.8-76.7-13-89.3
	c0-0.1-0.1-0.3-0.2-0.4c-0.1-0.1-0.3-0.1-0.4-0.1h-4.7c-0.1,0-0.1,0-0.3,0.1c-0.1,0-0.1,0.1-0.2,0.1c0,0-0.1,0.1-0.1,0.1
	s0,0.1-0.1,0.1v0.3c0.8,12.1,2,24.2,3.1,36.3c1.2,12.7,2.4,25.3,3.2,38c0,0.6-0.1,1.2-0.5,1.7c-0.4,0.5-0.9,0.9-1.5,1
	c-0.3,0-1.3,0.1-2.3,0.1c-1,0-2,0.1-2.3,0.1c-1.6,0-3.3-0.6-3.4-2.1c-0.5-5.1-1.4-17.1-2.5-30.2c-1.4-17.4-3-36.9-3.7-45
	c0-0.1-0.1-0.3-0.2-0.4c-0.1-0.1-0.3-0.1-0.4-0.1h-4.4h-0.3c-0.1,0-0.1,0.1-0.2,0.1c0,0-0.1,0.1-0.1,0.1c0,0,0,0.1-0.1,0.1
	c0,0,0,0.1,0,0.1c0,0,0,0.1,0,0.2c-0.3,13.7,0.1,28.1,0.4,42c0.3,11.5,0.5,22.7,0.5,32.8c0,1.9-1.6,2.6-3.5,2.6h-4.5
	c-1.8,0-3.5-0.6-3.5-2.6c-0.1-10.1,0.2-21.2,0.5-32.7c0.3-13.9,0.7-28.3,0.4-42c0-0.1-0.1-0.3-0.2-0.4c-0.1-0.1-0.3-0.2-0.5-0.2
	h-4.3c-0.1,0-0.3,0.1-0.5,0.1c-0.1,0.1-0.2,0.3-0.2,0.4c-0.8,8-2.3,27.5-3.7,45c-1.1,13.1-2,25.1-2.5,30.2c-0.2,1.6-1.8,2.1-3.4,2.1
	l-4.5-0.2c-0.6-0.1-1.2-0.5-1.5-0.9c-0.4-0.5-0.5-1.1-0.5-1.7c0.8-12.4,2-24.8,3.2-37.1c1.2-12.4,2.4-24.7,3.2-37.1v-0.3
	c0-0.1-0.1-0.1-0.1-0.2c-0.1-0.1-0.1-0.1-0.2-0.1c0,0-0.1,0-0.1,0c0,0-0.1,0-0.2,0h-4.7c-0.1,0-0.3,0.1-0.4,0.1
	c-0.1,0.1-0.2,0.2-0.2,0.4c-2.2,12.6-12.2,69.7-13,89.2c-1.2,22.7,4.8,38.3,13.8,56.7c6,12.9,13.3,40.7,13.4,91
	C52.2,327.8,0,264.9,0,166.4C0,63.7,56.9,0,148.8,0c94.3,0,148.8,60.6,148.8,166.4C297.5,267.4,248,327.7,161.4,332.9z"/>
</svg>
