<svg width="623" height="298" viewBox="0 0 623 298" fill="none" xmlns="http://www.w3.org/2000/svg">
<path fill-rule="evenodd" clip-rule="evenodd" d="M278.701 10.389C246.874 2.90892 218.918 0 188.811 0C63.6538 0 0 49.867 0 148.354C0 248.088 59.3529 297.124 181.499 297.124C213.326 297.124 253.325 289.71 278.701 280.152V161.402C267.037 161.312 255.157 161.06 243.702 160.816C217.337 160.256 193.223 159.743 179.172 161.369C157.518 163.943 125.717 167.601 115.775 159.337C112.166 156.357 110.6 154.595 110.6 148.905C110.668 143.215 112.098 141.59 115.775 138.541C125.143 130.765 154.614 134.269 175.812 136.789C176.958 136.925 178.079 137.058 179.172 137.187C193.725 138.919 218.054 138.409 244.617 137.852C255.77 137.619 267.317 137.377 278.701 137.289V10.389ZM289.182 161.44C339.5 161.623 367.213 168.897 380.122 174.849C398.576 183.79 414.102 189.819 436.846 188.6C456.389 187.719 513.589 177.829 526.187 175.594C526.323 175.594 526.46 175.526 526.596 175.391C526.664 175.255 526.732 175.12 526.732 174.984V170.311C526.732 170.243 526.732 170.175 526.664 170.04C526.664 169.972 526.596 169.904 526.528 169.836C526.494 169.803 526.459 169.786 526.425 169.769C526.391 169.752 526.357 169.735 526.323 169.701H526.051C513.921 170.527 501.856 171.677 489.792 172.825C477.137 174.031 464.484 175.236 451.759 176.068C451.146 176.068 450.533 175.933 450.056 175.594C449.58 175.188 449.171 174.714 449.103 174.104C449.069 173.833 449.035 172.834 449.001 171.835C448.967 170.836 448.933 169.836 448.899 169.565C448.899 168.007 449.512 166.246 451.01 166.179C456.125 165.713 468.103 164.749 481.225 163.692C498.672 162.288 518.142 160.72 526.187 159.947C526.323 159.947 526.46 159.879 526.596 159.743C526.664 159.608 526.732 159.473 526.732 159.337V154.934V154.663C526.732 154.595 526.664 154.528 526.596 154.46C526.562 154.426 526.528 154.409 526.494 154.392C526.459 154.375 526.425 154.358 526.391 154.324C526.363 154.324 526.335 154.313 526.302 154.299C526.255 154.28 526.199 154.257 526.119 154.257C512.422 153.998 498.034 154.345 484.154 154.681C472.641 154.959 461.477 155.229 451.35 155.137C449.443 155.137 448.762 153.512 448.762 151.615V147.076C448.762 145.248 449.375 143.554 451.35 143.554C461.441 143.462 472.58 143.732 484.078 144.01C497.952 144.346 512.348 144.694 526.051 144.435C526.187 144.435 526.391 144.367 526.459 144.231C526.596 144.096 526.664 143.961 526.664 143.757V139.422C526.664 139.287 526.596 139.083 526.528 138.948C526.459 138.812 526.255 138.745 526.119 138.745C518.074 137.971 498.604 136.404 481.157 134.999C468.035 133.942 456.057 132.978 450.941 132.513C449.375 132.31 448.831 130.684 448.831 129.126L449.035 124.587C449.103 123.978 449.511 123.436 449.92 123.097C450.397 122.691 451.01 122.555 451.622 122.623C464.05 123.436 476.409 124.621 488.768 125.807C501.128 126.992 513.487 128.178 525.915 128.99H526.187C526.255 128.99 526.323 128.923 526.391 128.855C526.459 128.787 526.528 128.719 526.528 128.652C526.528 128.624 526.539 128.596 526.553 128.563C526.572 128.516 526.596 128.46 526.596 128.381V123.707C526.596 123.571 526.528 123.436 526.459 123.3C526.391 123.165 526.255 123.097 526.051 123.097C513.453 120.862 456.389 110.904 436.846 110.092C414.102 108.872 398.576 114.901 380.122 123.842C367.21 129.796 339.421 137.137 289.147 137.254C294.318 52.1961 357.254 0 455.678 0C558.47 0 622.124 56.9315 622.124 148.77C622.124 243.102 561.481 297.54 455.678 297.54C354.706 297.54 294.472 247.959 289.182 161.44Z" fill="#FF0F00"/>
</svg>
