<svg width="623" height="298" viewBox="0 0 623 298" fill="none" xmlns="http://www.w3.org/2000/svg">
<path fill-rule="evenodd" clip-rule="evenodd" d="M278.701 10.389C246.874 2.90892 218.918 0 188.811 0C63.6538 0 0 49.867 0 148.354C0 248.088 59.3529 297.124 181.499 297.124C213.326 297.124 253.325 289.71 278.701 280.152V162.128C207.345 168.353 121.675 175.823 121.675 175.823C118.962 176.061 116.357 175.194 114.291 173.459C112.225 171.723 110.914 169.238 110.683 166.589C110.451 163.94 111.311 161.265 113.044 159.197C114.777 157.129 117.26 155.817 119.905 155.586L120.574 155.528C128.769 154.826 210.664 147.808 278.701 141.952V10.389ZM289.169 161.215C328.776 157.76 362.163 154.847 370.98 154.075C370.98 154.075 385.238 152.965 387.38 154.009C387.897 154.247 389.321 155.518 391.391 157.366C397.311 162.65 408.512 172.648 418.895 176.708C442.532 185.931 463.498 181.016 473.666 178.484C473.666 178.484 498.28 172.293 516.099 154.857C520.913 149.714 526.164 140.974 525.249 130.516C524.417 121.008 517.793 112.486 512.013 108.133C491.431 93.9899 466.122 92.2355 466.122 92.2355C455.669 91.5079 434.169 90.31 412.491 103.498C402.8 109.324 393.382 121.362 388.546 127.543C386.933 129.604 385.83 131.014 385.396 131.326C383.468 132.727 369.234 134.109 369.234 134.109C360.553 134.892 327.903 137.716 288.955 141.07C292.454 53.7599 355.79 0 455.678 0C558.47 0 622.124 56.9315 622.124 148.77C622.124 243.102 561.481 297.54 455.678 297.54C354.618 297.54 294.368 247.873 289.169 161.215Z" fill="#FF0F00"/>
</svg>
