<?xml version="1.0" encoding="utf-8"?>
<!-- Generator: Adobe Illustrator 26.3.1, SVG Export Plug-In . SVG Version: 6.00 Build 0)  -->
<svg version="1.1" id="Layer_1" xmlns="http://www.w3.org/2000/svg" xmlns:xlink="http://www.w3.org/1999/xlink" x="0px" y="0px"
	 viewBox="0 0 297.5 622.1" style="enable-background:new 0 0 297.5 622.1;" xml:space="preserve">
<style type="text/css">
	.st0{fill-rule:evenodd;clip-rule:evenodd;fill:#FF0F00;}
</style>
<path class="st0" d="M10.4,343.4C2.9,375.2,0,403.2,0,433.3c0,125.2,49.9,188.8,148.4,188.8c99.7,0,148.8-59.4,148.8-181.5
	c0-31.8-7.4-71.8-17-97.2H162.9c-2.8,57.7-6.5,135.9-6.8,161c0,5.1-1,7.8-5.2,7.8h-4.3c-4.2,0-5.2-2.7-5.2-7.8
	c-0.2-25.1-3.9-103.3-6.8-161H10.4z M163.4,332.8c1.6-32.2,2.8-55.8,2.8-55.8c0.3-3.2-0.1-6.4-1.1-9.5c-1.7-4.5-3.5-8.6-5.2-12.2
	c-4-8.7-6.8-14.8-3-18c3-2.6,6.3-4.8,9.6-6.9c13.3-8.7,27.2-17.7,26.4-62c-0.6-31.3-23.6-72.4-44.2-72.4
	c-20.7,0-43.6,41.2-44.2,72.4c-0.9,44.3,13,53.3,26.4,62c3.3,2.2,6.6,4.3,9.6,6.9c3.7,3.3,0.9,9.4-3.1,18.2c-1.6,3.6-3.4,7.5-5.1,12
	c-1,3.1-1.3,6.3-1.1,9.5c0,0,1.3,23.5,2.9,55.7C50.9,326.2,0,263.6,0,166.4C0,63.7,56.9,0,148.8,0c94.3,0,148.8,60.6,148.8,166.4
	C297.5,266.7,248.7,326.7,163.4,332.8z"/>
</svg>
