<svg width="623" height="298" viewBox="0 0 623 298" fill="none" xmlns="http://www.w3.org/2000/svg">
<path fill-rule="evenodd" clip-rule="evenodd" d="M278.701 10.389C246.874 2.90892 218.918 0 188.811 0C63.6538 0 0 49.867 0 148.354C0 248.088 59.3529 297.124 181.499 297.124C213.326 297.124 253.325 289.71 278.701 280.152V167.832L175.03 145.74C161.423 142.109 147.92 138.506 134.419 134.903L133.462 134.648C120.359 131.151 107.256 127.655 94.0617 124.134C93.6882 124.035 93.3391 123.86 93.0366 123.62C92.7341 123.38 92.4846 123.079 92.3041 122.738C92.1236 122.396 92.0159 122.021 91.9877 121.635C91.9596 121.25 92.0116 120.863 92.1405 120.499L92.1649 120.444C92.3884 119.831 92.8196 119.316 93.3836 118.988C93.9476 118.66 94.6087 118.54 95.2518 118.65C107.022 120.627 118.955 122.606 130.889 124.585L130.897 124.586C143.744 126.716 156.592 128.847 169.241 130.976L191.012 134.864L278.701 153.227V117.132L183.032 105.764C169.217 103.405 155.506 101.064 141.799 98.7238L141.54 98.6795L140.458 98.4948C127.145 96.2219 113.831 93.949 100.426 91.6601C100.045 91.5962 99.6816 91.454 99.3584 91.2425C99.0351 91.0309 98.7592 90.7545 98.5482 90.4309C98.3371 90.1072 98.1956 89.7434 98.1323 89.3622C98.069 88.981 98.0853 88.5909 98.1804 88.2163L98.1997 88.1595C98.3662 87.5286 98.7485 86.9761 99.2801 86.598C99.8117 86.2199 100.459 86.0403 101.109 86.0902C113.008 86.9813 125.068 87.859 137.13 88.7368L137.135 88.7372L137.14 88.7376L137.144 88.7379C150.133 89.6832 163.124 90.6287 175.916 91.591L197.952 93.4691L278.701 102.776V10.389ZM291.285 118.628L325.736 122.722L487.008 140.48L560.409 147.972C560.777 148.009 561.149 147.973 561.503 147.866C561.858 147.759 562.187 147.583 562.473 147.347C562.758 147.112 562.994 146.822 563.167 146.494C563.34 146.167 563.446 145.809 563.48 145.44L564.112 138.419C564.177 137.692 563.955 136.968 563.495 136.402C563.034 135.836 562.37 135.472 561.645 135.389L294.363 104.582C311.998 39.0274 370.57 0 455.678 0C558.47 0 622.124 56.9315 622.124 148.77C622.124 243.102 561.481 297.54 455.678 297.54C358.174 297.54 298.658 251.306 289.921 170.223L315.583 175.692L474.554 208.141L546.961 222.32C547.324 222.391 547.698 222.39 548.06 222.315C548.423 222.241 548.767 222.095 549.073 221.887C549.379 221.679 549.641 221.412 549.843 221.102C550.045 220.792 550.184 220.445 550.251 220.08L551.522 213.147C551.654 212.429 551.499 211.688 551.092 211.082C550.685 210.476 550.058 210.053 549.344 209.903L288.903 155.363C288.836 153.188 288.802 150.99 288.802 148.77C288.802 138.254 289.642 128.195 291.285 118.628Z" fill="#FF0F00"/>
</svg>
