<?xml version="1.0" encoding="utf-8"?>
<!-- Generator: Adobe Illustrator 26.3.1, SVG Export Plug-In . SVG Version: 6.00 Build 0)  -->
<svg version="1.1" id="Layer_1" xmlns="http://www.w3.org/2000/svg" xmlns:xlink="http://www.w3.org/1999/xlink" x="0px" y="0px"
	 viewBox="0 0 297.5 622.1" style="enable-background:new 0 0 297.5 622.1;" xml:space="preserve">
<style type="text/css">
	.st0{fill-rule:evenodd;clip-rule:evenodd;fill:#FF0F00;}
</style>
<path class="st0" d="M10.4,343.4C2.9,375.3,0,403.2,0,433.3c0,125.2,49.9,188.8,148.4,188.8c99.7,0,148.8-59.4,148.8-181.5
	c0-31.8-7.4-71.8-17-97.2H158.5c0.9,44.5,2.3,88.1,3.6,98.5l0,0.2c2.7,22.1,6.6,54.6-2.2,64.7c-3.2,3.7-5,5.3-11.1,5.3
	c-6-0.1-7.8-1.6-11-5.3c-8.3-9.7-4.5-40.4-1.7-62.2c0.1-0.9,0.2-1.9,0.3-2.8c1.3-10.5,2.6-54,3.4-98.5H10.4z M158.3,333.1
	c-0.8-48-1-94.1,0.2-98c2.4-7.5,10.2-14,18.4-20.8c8.3-6.9,17-14.2,20.9-23.1c20.3-45.6-6.9-95.1-48.3-95.1
	c-43.6,0-69.3,49.4-49.1,95.1c4,9,12.6,16.2,20.9,23.1c8.2,6.9,16,13.4,18.4,20.9c1.3,3.9,1.1,50,0.4,98c-86.7-4-140-67.2-140-166.7
	C0,63.7,56.9,0,148.8,0c94.3,0,148.8,60.6,148.8,166.4C297.5,268.6,246.8,329.1,158.3,333.1z"/>
</svg>
