<svg width="623" height="298" viewBox="0 0 623 298" fill="none" xmlns="http://www.w3.org/2000/svg">
<path fill-rule="evenodd" clip-rule="evenodd" d="M278.701 10.389C246.874 2.90892 218.918 0 188.811 0C63.6538 0 0 49.867 0 148.354C0 248.088 59.3529 297.124 181.499 297.124C213.326 297.124 253.325 289.71 278.701 280.152V162.863C220.976 160.029 142.76 156.376 117.67 156.088C112.564 156.088 109.909 155.07 109.909 150.862V146.587C109.909 142.379 112.564 141.361 117.67 141.361C142.803 141.114 220.993 137.426 278.701 134.545V10.389ZM289.311 163.386C321.52 164.979 345.072 166.2 345.072 166.2C348.272 166.471 351.472 166.064 354.536 165.114C359.041 163.425 363.109 161.567 366.721 159.917C375.447 155.932 381.52 153.159 384.698 156.902C387.335 159.908 389.461 163.179 391.61 166.484C400.277 179.815 409.296 193.686 453.599 192.871C484.85 192.26 526.041 169.321 526.041 148.623C526.041 127.924 484.85 105.053 453.599 104.443C409.344 103.572 400.296 117.48 391.613 130.828C389.462 134.135 387.333 137.407 384.698 140.411C381.445 144.137 375.32 141.342 366.495 137.316C362.942 135.695 358.952 133.874 354.536 132.199C351.472 131.249 348.272 130.91 345.072 131.113C345.048 131.138 321.534 132.389 289.374 134.009C295.932 50.8708 358.511 0 455.678 0C558.47 0 622.124 56.9315 622.124 148.77C622.124 243.102 561.481 297.54 455.678 297.54C355.465 297.54 295.381 248.702 289.311 163.386Z" fill="#FF0F00"/>
</svg>
