<?xml version="1.0" encoding="utf-8"?>
<!-- Generator: Adobe Illustrator 26.3.1, SVG Export Plug-In . SVG Version: 6.00 Build 0)  -->
<svg version="1.1" id="Layer_1" xmlns="http://www.w3.org/2000/svg" xmlns:xlink="http://www.w3.org/1999/xlink" x="0px" y="0px"
	 viewBox="0 0 297.5 622.1" style="enable-background:new 0 0 297.5 622.1;" xml:space="preserve">
<style type="text/css">
	.st0{fill-rule:evenodd;clip-rule:evenodd;fill:#FF0F00;}
</style>
<path class="st0" d="M10.4,343.4C2.9,375.2,0,403.2,0,433.3c0,125.2,49.9,188.8,148.4,188.8c99.7,0,148.8-59.4,148.8-181.5
	c0-31.8-7.4-71.8-17-97.2H163c2.5,27.5,5.4,58.7,7.9,86.6c2.9,31.3,5.3,58.4,6.6,71.6c0.5,5.2-0.2,8-4.5,8.5l-4.4,0.5
	c-4.3,0.5-5.6-2.1-6.2-7.3c-2.2-19.4-7.4-63-12.7-107.3c-2.1-17.9-4.3-36-6.3-52.6H10.4z M162,332.9c-3.2-34.4-5.7-61.1-6.2-64.5
	c-1.1-8.9,5.6-27.3,9.4-37.8c0.4-1.2,0.8-2.2,1.1-3.2c4.1-11.5,7.5-21.1,7-26.6c-0.6-5.3-12.1-62-17.9-90.6c-1.1-5.3-2-9.7-2.5-12.5
	c-0.6-2.9-3.4-3.5-4.8-3.2c-1.5,0.3-4.2,1.7-3.7,4.6l10,95.2c0.5,5.1-1.9,7.1-4.5,7.4c-2.4,0.2-5.4-0.7-6-6.1l-11.7-95.3
	c-0.2-1.7-2.7-3.8-4.9-3.6c-2.2,0.2-4.2,2.8-4,4.5l8.4,95.6c0.6,5.4-2.2,7-4.6,7.2c-2.6,0.3-5.4-1.2-6-6.3l-10-95.2
	c-0.2-2.9-3-3.8-4.6-3.7c-1.4,0.1-4.1,1.3-4.1,4.2c0.1,18.6,0.8,98.8,1.4,105.2c0.6,5.5,5.9,14.3,12.3,24.6c0.4,0.6,0.8,1.3,1.3,2
	c5.9,9.4,16.8,26.7,17.6,35.9c0.3,3.5,3.3,29.2,7.2,62.7C54.3,330.3,0,266.8,0,166.4C0,63.7,56.9,0,148.8,0
	c94.3,0,148.8,60.6,148.8,166.4C297.5,267.2,248.2,327.4,162,332.9z"/>
</svg>
