<?xml version="1.0" encoding="utf-8"?>
<!-- Generator: Adobe Illustrator 26.3.1, SVG Export Plug-In . SVG Version: 6.00 Build 0)  -->
<svg version="1.1" id="Layer_1" xmlns="http://www.w3.org/2000/svg" xmlns:xlink="http://www.w3.org/1999/xlink" x="0px" y="0px"
	 viewBox="0 0 297.5 622.1" style="enable-background:new 0 0 297.5 622.1;" xml:space="preserve">
<style type="text/css">
	.st0{fill-rule:evenodd;clip-rule:evenodd;fill:#FF0F00;}
</style>
<path class="st0" d="M10.4,343.4C2.9,375.2,0,403.2,0,433.3c0,125.2,49.9,188.8,148.4,188.8c99.7,0,148.8-59.4,148.8-181.5
	c0-31.8-7.4-71.8-17-97.2H160.8c-2.3,59.7-4.9,143.1-5.2,170.9c0,5.4-1,8.2-5,8.2h-4.1c-4,0-5-2.8-5-8.2
	c-0.1-13.2-0.6-50.7-1.2-99.2c-0.3-22.1-0.6-46.4-0.9-71.8H10.4z M161.2,333c1.1-29.4,2.2-51.1,2.6-54c1.8-14.2,14.4-40.3,15.2-41.7
	c0.8-1.2,1.4-2.6,1.6-4.1c0.1-1.7-0.1-3.4-0.7-5.1c-0.4-1.5,0.3-2.6,1.1-3.8c0.9-1.4,1.9-2.9,1.4-5.2c-0.3-1.5-0.9-2.3-1.6-3.1
	c-0.6-0.7-1.3-1.5-1.5-2.9c-0.3-1.5,0.2-2.5,0.7-3.5c0.5-1,1-2,0.8-3.6c-0.2-1.7-1.1-2.6-2.1-3.5c-0.9-0.9-1.9-1.7-2.1-3.5
	c-0.3-1.7,0.2-2.8,0.8-4c0.5-1.1,1-2.3,0.7-3.9c-0.3-1.6-1.2-2.4-2.1-3.2c-0.9-0.8-1.7-1.6-2.1-3.2c-0.3-1.6,0.2-2.7,0.7-3.9
	c0.5-1.1,1-2.3,0.7-3.9c-0.3-1.7-1.2-2.5-2.1-3.3c-0.9-0.8-1.8-1.6-2-3.3c-0.3-1.6,0.2-2.7,0.7-3.8c0.5-1.1,1-2.1,0.7-3.7
	c-0.3-1.7-1.2-2.5-2.1-3.3c-0.9-0.8-1.7-1.6-2.1-3.2c-0.3-1.6,0.2-2.7,0.7-3.8c0.5-1.1,1-2.3,0.7-3.9c-0.3-1.6-1.2-2.4-2-3.2
	s-1.7-1.5-2-3.2c-0.3-1.6,0.2-2.7,0.7-3.8c0.5-1.1,1-2.2,0.7-3.8c-0.3-1.7-1.2-2.4-2.1-3.2c-0.9-0.8-1.7-1.6-2.1-3.2
	c-0.4-1.7,0.2-2.8,0.7-4c0.5-1.2,1-2.4,0.7-4c-0.3-1.6-1.2-2.4-2.1-3.2c-0.9-0.8-1.7-1.5-2.1-3.2c-0.3-1.6,0.2-2.7,0.7-3.9
	c0.5-1.1,1-2.3,0.7-3.9c-0.3-1.6-1.1-2.5-2-3.4c-0.8-0.8-1.7-1.7-2.1-3.2c-0.7-2.5-1-5-0.9-7.6c0.1-2.8-0.6-4.1-1.8-6.5
	c-3.6-6.7-7.9-12.9-12.7-18.6c-1.4-1.6-2.8-2.3-4-1.6c-0.4,0.2-0.6,0.5-0.9,0.9c-0.3,0.4-0.4,0.8-0.4,1.3
	c0,47.6,1.3,163.2,2.5,265.6C53.1,328.9,0,265.7,0,166.4C0,63.7,56.9,0,148.8,0c94.3,0,148.8,60.6,148.8,166.4
	C297.5,267.5,247.9,327.8,161.2,333z"/>
</svg>
