<?xml version="1.0" encoding="utf-8"?>
<!-- Generator: Adobe Illustrator 26.3.1, SVG Export Plug-In . SVG Version: 6.00 Build 0)  -->
<svg version="1.1" id="Layer_1" xmlns="http://www.w3.org/2000/svg" xmlns:xlink="http://www.w3.org/1999/xlink" x="0px" y="0px"
	 viewBox="0 0 297.5 622.1" style="enable-background:new 0 0 297.5 622.1;" xml:space="preserve">
<style type="text/css">
	.st0{fill-rule:evenodd;clip-rule:evenodd;fill:#FF0F00;}
</style>
<path class="st0" d="M10.4,343.4C2.9,375.2,0,403.2,0,433.3c0,125.2,49.9,188.8,148.4,188.8c99.7,0,148.8-59.4,148.8-181.5
	c0-31.8-7.4-71.8-17-97.2h-118c6.2,71.4,13.7,157,13.7,157c0.2,2.7-0.6,5.3-2.4,7.4c-1.7,2.1-4.2,3.4-6.9,3.6
	c-2.6,0.2-5.3-0.6-7.4-2.4c-2.1-1.7-3.4-4.2-3.6-6.9l-0.1-0.7c-0.7-8.2-7.7-90.1-13.6-158.1H10.4z M161.2,333
	c-3.5-39.6-6.4-73-7.1-81.8c0,0-1.1-14.3-0.1-16.4c0.2-0.5,1.5-1.9,3.4-4c5.3-5.9,15.3-17.1,19.3-27.5c9.2-23.6,4.3-44.6,1.8-54.8
	c0,0-6.2-24.6-23.6-42.4c-5.1-4.8-13.9-10.1-24.3-9.2c-9.5,0.8-18,7.5-22.4,13.2C94,130.7,92.2,156,92.2,156
	c-0.7,10.5-1.9,32,11.3,53.6c5.8,9.7,17.9,19.1,24,23.9c2.1,1.6,3.5,2.7,3.8,3.1c1.4,1.9,2.8,16.2,2.8,16.2c0.8,8.7,3.6,41.3,7,80.3
	C53.8,329.7,0,266.3,0,166.4C0,63.7,56.9,0,148.8,0c94.3,0,148.8,60.6,148.8,166.4C297.5,267.5,247.9,327.8,161.2,333z"/>
</svg>
