<svg width="623" height="298" viewBox="0 0 623 298" fill="none" xmlns="http://www.w3.org/2000/svg">
<path fill-rule="evenodd" clip-rule="evenodd" d="M278.701 10.389C246.874 2.90892 218.918 0 188.811 0C63.6538 0 0 49.867 0 148.354C0 248.088 59.3529 297.124 181.499 297.124C213.326 297.124 253.325 289.71 278.701 280.152V160.799C218.994 158.537 135.576 155.914 107.764 155.599C102.352 155.599 99.5399 154.604 99.5399 150.622V146.57C99.5399 142.588 102.352 141.593 107.764 141.593C120.962 141.486 158.493 141.029 206.946 140.439C229.02 140.17 253.361 139.874 278.701 139.571V10.389ZM289.168 161.201C318.573 162.349 340.289 163.356 343.18 163.847C357.38 165.695 383.459 178.209 384.865 179.062C386.06 179.844 387.466 180.413 388.942 180.626C390.629 180.697 392.386 180.484 394.003 179.915C395.488 179.481 396.602 180.207 397.823 181.004C399.203 181.904 400.722 182.894 403.071 182.404C404.606 182.115 405.379 181.459 406.146 180.81C406.89 180.18 407.627 179.555 409.046 179.275C410.537 178.988 411.544 179.462 412.573 179.947C413.583 180.423 414.615 180.908 416.146 180.697C417.877 180.483 418.738 179.568 419.613 178.638C420.478 177.719 421.357 176.785 423.105 176.502C424.791 176.218 425.95 176.75 427.091 177.274C428.235 177.799 429.36 178.316 430.978 177.995C432.595 177.676 433.385 176.805 434.176 175.934C434.967 175.063 435.758 174.192 437.375 173.872C438.985 173.553 440.108 174.046 441.237 174.542C442.375 175.041 443.519 175.544 445.177 175.223C446.865 174.903 447.691 174.013 448.508 173.133C449.325 172.254 450.134 171.383 451.785 171.099C453.408 170.813 454.5 171.316 455.585 171.816C456.661 172.311 457.731 172.804 459.307 172.521C460.979 172.233 461.787 171.344 462.596 170.453C463.386 169.584 464.177 168.713 465.774 168.397C467.335 168.116 468.435 168.615 469.536 169.116C470.666 169.629 471.799 170.143 473.436 169.819C475.052 169.499 475.826 168.646 476.599 167.793C477.372 166.94 478.145 166.086 479.762 165.766C481.387 165.445 482.479 165.931 483.583 166.422C484.676 166.909 485.78 167.4 487.424 167.117C489.076 166.797 489.867 165.926 490.658 165.055C491.449 164.184 492.239 163.313 493.891 162.994C495.543 162.638 496.721 163.154 497.898 163.669C499.076 164.184 500.253 164.7 501.905 164.344C503.522 164.024 504.295 163.154 505.068 162.283C505.841 161.412 506.615 160.541 508.231 160.221C509.842 159.902 510.964 160.412 512.094 160.926C513.231 161.443 514.376 161.964 516.034 161.643C517.675 161.348 518.541 160.497 519.435 159.619C520.265 158.803 521.12 157.964 522.642 157.519C525.102 156.808 527.633 156.524 530.233 156.666C533.045 156.737 534.31 156.097 536.701 154.888C543.449 151.262 549.635 146.996 555.258 142.162C556.875 140.811 557.578 139.389 556.875 138.18C556.664 137.825 556.383 137.54 555.961 137.327C555.539 137.042 555.118 136.9 554.626 136.9C506.981 136.939 391.385 138.227 289.027 139.447C293.242 53.0944 356.41 0 455.678 0C558.47 0 622.124 56.9315 622.124 148.77C622.124 243.102 561.481 297.54 455.678 297.54C354.613 297.54 294.361 247.868 289.168 161.201Z" fill="#FF0F00"/>
</svg>
