<?xml version="1.0" encoding="utf-8"?>
<!-- Generator: Adobe Illustrator 26.3.1, SVG Export Plug-In . SVG Version: 6.00 Build 0)  -->
<svg version="1.1" id="Layer_1" xmlns="http://www.w3.org/2000/svg" xmlns:xlink="http://www.w3.org/1999/xlink" x="0px" y="0px"
	 viewBox="0 0 297.5 622.1" style="enable-background:new 0 0 297.5 622.1;" xml:space="preserve">
<style type="text/css">
	.st0{fill-rule:evenodd;clip-rule:evenodd;fill:#FF0F00;}
</style>
<path class="st0" d="M10.4,343.4C2.9,375.2,0,403.2,0,433.3c0,125.2,49.9,188.8,148.4,188.8c99.7,0,148.8-59.4,148.8-181.5
	c0-31.8-7.4-71.8-17-97.2H152.3L149.2,512c0,2.8-1.1,5.5-3.1,7.5c-2,2-4.7,3.1-7.5,3.1c-2.8,0-5.5-1.1-7.5-3.1c-2-2-3.1-4.6-3.1-7.5
	l-1.1-168.6H10.4z M152.5,333.3l0.4-20.1c0-9.4,7.3-14.2,11.9-17.2c1.1-0.7,2-1.3,2.6-1.8c6.2-5.2,6.2-10.3,6.1-15.4
	c0-0.4,0-0.7,0-1.1l-2.9-168.1c0-0.4,0-0.9,0-1.4c0-6,0.1-19.1-11.1-25.4c-7.5-4.4-11.4-6.5-20.1-11.3c-6.8-3.2-14.4,1.8-14.3,8.1
	l1.6,252.4C47.9,322.5,0,260.8,0,166.4C0,63.7,56.9,0,148.8,0c94.3,0,148.8,60.6,148.8,166.4C297.5,270.8,244.5,331.7,152.5,333.3z"
	/>
</svg>
