<svg width="623" height="298" viewBox="0 0 623 298" fill="none" xmlns="http://www.w3.org/2000/svg">
<path fill-rule="evenodd" clip-rule="evenodd" d="M278.701 10.389C246.874 2.90892 218.918 0 188.811 0C63.6538 0 0 49.867 0 148.354C0 248.088 59.3529 297.124 181.499 297.124C213.326 297.124 253.325 289.71 278.701 280.152V162.965C251.184 165.501 219.982 168.351 192.069 170.901C160.789 173.758 133.639 176.238 120.436 177.475C115.235 178.022 112.42 177.227 111.974 172.979L111.513 168.597C111.06 164.281 113.655 162.986 118.856 162.439C138.268 160.223 181.834 155.033 226.116 149.756C244.045 147.62 262.092 145.47 278.701 143.497V10.389ZM289.217 161.995C323.658 158.812 350.311 156.297 353.764 155.809C362.635 154.692 381.038 161.381 391.596 165.218C392.75 165.638 393.811 166.024 394.755 166.361C406.25 170.47 415.829 173.894 421.368 173.312C426.665 172.755 483.403 161.215 512.004 155.398C517.319 154.317 521.663 153.434 524.524 152.855C527.4 152.28 527.987 149.423 527.771 148.014C527.473 146.478 526.034 143.834 523.211 144.267L427.973 154.279C422.907 154.812 420.874 152.367 420.598 149.737C420.35 147.377 421.329 144.343 426.732 143.775L522.004 132.123C523.685 131.878 525.815 129.404 525.589 127.247C525.362 125.089 522.757 123.045 521.068 123.222L425.457 131.638C420.061 132.273 418.465 129.441 418.217 127.081C417.941 124.452 419.421 121.637 424.487 121.105L519.725 111.092C522.644 110.922 523.509 108.104 523.406 106.479C523.258 105.063 522.089 102.391 519.224 102.419C500.593 102.537 420.42 103.194 414.07 103.862C408.532 104.444 399.806 109.792 389.484 116.195C388.858 116.587 388.175 117.016 387.444 117.476C378.079 123.367 360.75 134.267 351.582 135.041C348.062 135.312 322.373 138.319 288.91 142.286C291.868 54.2595 355.327 0 455.678 0C558.47 0 622.124 56.9315 622.124 148.77C622.124 243.102 561.481 297.54 455.678 297.54C354.922 297.54 294.73 248.171 289.217 161.995Z" fill="#FF0F00"/>
</svg>
